<?xml version="1.0" encoding="iso-8859-1"?>
<!-- Generator: Adobe Illustrator 16.0.0, SVG Export Plug-In . SVG Version: 6.00 Build 0)  -->
<!DOCTYPE svg PUBLIC "-//W3C//DTD SVG 1.1//EN" "http://www.w3.org/Graphics/SVG/1.1/DTD/svg11.dtd">
<svg version="1.1" id="Layer_1" xmlns="http://www.w3.org/2000/svg" xmlns:xlink="http://www.w3.org/1999/xlink" x="0px" y="0px"
	 width="71.479px" height="70.721px" viewBox="4.261 5.053 71.479 70.721"
	 style="enable-background:new 4.261 5.053 71.479 70.721;" xml:space="preserve">
<g id="freepik--background-simple--inject-435" style="opacity:0.1;">
	<path style="fill:#FFFFFF;" d="M70.101,28.33l-0.369-0.603c-2.972-4.834-8.32-7.765-13.989-7.479
		c-0.799,0.041-1.594,0.144-2.377,0.309c-5.215,1.103-9.752,4.997-11.634,9.982c-1.106,2.935-1.415,6.311-3.52,8.64
		c-2.731,3.03-7.37,3.125-11.447,3c-4.077-0.125-8.718-0.02-11.437,3.021c-1.704,1.906-2.24,4.615-2.107,7.167
		c0.363,6.753,5.13,12.8,11.2,15.795s13.198,3.271,19.84,1.95c9.293-1.85,18.132-6.931,23.443-14.777
		C73.016,47.49,74.352,36.8,70.101,28.33z"/>
</g>
<g id="freepik--Floor--inject-435">
	<path style="fill:#263238;" d="M75.739,74.531c0,0.023-16,0.043-35.738,0.043c-19.737,0-35.741-0.014-35.741-0.043
		s16-0.041,35.741-0.041S75.739,74.509,75.739,74.531z"/>
</g>
<g id="freepik--Character--inject-435">
	<path style="fill:#29C7AC;" d="M50.512,35.753c0.088-1.481,0.176-2.963,0.266-4.445c0.012-0.179,0.039-0.385,0.192-0.48
		c0.151-0.06,0.321-0.048,0.464,0.032c2.627,1.058,4.555,3.989,4.785,6.81"/>
	<g style="opacity:0.3;">
		<path style="fill:#FFFFFF;" d="M51.404,32.365c1.248,0.817,2.041,2.171,2.145,3.659c0.029,0.177-0.008,0.359-0.105,0.51
			c-0.102,0.11-0.243,0.172-0.393,0.171c-0.146-0.001-0.293-0.024-0.435-0.067c-0.354-0.091-0.727-0.19-0.989-0.446
			c-0.24-0.254-0.377-0.588-0.385-0.938c-0.007-0.347,0.028-0.692,0.105-1.03l0.447,0.765l-0.479-2.477
			c-0.016-0.044-0.011-0.093,0.013-0.133c0.027-0.036,0.104-0.022,0.1,0.022"/>
	</g>
	<path style="fill:#29C7AC;" d="M35.282,38.909c-1.371-1.628-2.16-3.667-2.24-5.793l1.464,0.689l-0.366-0.446
		c2.136,0.178,4.119,1.184,5.525,2.802"/>
	<g style="opacity:0.3;">
		<path style="fill:#FFFFFF;" d="M36.093,38.262c-1.162-0.844-1.923-2.133-2.101-3.558c-0.011-0.096,0-0.223,0.089-0.254
			c0.068-0.012,0.137,0.007,0.189,0.053l2.642,1.727c-0.115-0.165-0.187-0.356-0.208-0.555l1.12,0.82
			c0.086,0.048,0.149,0.128,0.176,0.223c0.001,0.107-0.049,0.208-0.136,0.271c-0.379,0.342-0.911,0.46-1.4,0.311l0.48,0.417
			c-0.289,0.187-0.641,0.247-0.976,0.168c-0.033,0.161,0.036,0.327,0.173,0.417"/>
	</g>
	<path style="fill:#29C7AC;" d="M65.12,52.872c0,0,2.048,2.116,2.979,1.94c0,0-3.236-3.441-4.596-6.617
		c-0.649-1.502-1.424-2.947-2.313-4.32c0.612-1.056,1.158-2.251,1.408-3.459c-0.688,0.798-1.472,1.508-2.335,2.111
		c-0.07-0.099-0.143-0.196-0.216-0.295c0.724-0.655,1.206-1.534,1.37-2.497l-3.234-0.139c0.102-0.146,0.193-0.298,0.273-0.456
		c-1.588-1.365-3.367-2.492-5.279-3.345c-3.721-2.117-12-2.816-16.032,0.625c-3.611,2.105-4.579,4.8-7.424,5.468l-1.687-0.185
		c0,0-0.656,3.521,1.499,5.093l-1.6-0.371c0,0,0.294,1.401,1.869,2.947l-0.982-0.12c0,0,0.426,2.204,1.786,2.734
		c0,0-2.125,0.266-2.72-0.53c0,0-0.707,3.297,2.511,4.539c0,0-9.642,1.131-6.931,12.934c0.64,2.757,4.44,4.74,8.816,5.699
		l31.52-0.123c1.92-0.627,4.211-6.989,4.296-9.547c0.085-2.559-1.189-7.502-1.189-7.502l1.194,1.59L65.12,52.872z"/>
	<path style="fill:#29C7AC;" d="M29.094,57.791c-1.81-0.109-3.587,1.297-3.896,3.084c1.178-0.781,2.522-1.273,3.925-1.439
		c-1.131,1.04-1.502,2.672-0.933,4.099c0.471-1.259,1.438-2.271,2.675-2.798c-0.851,1.025-1.103,2.421-0.666,3.68"/>
	<path style="fill:#263238;" d="M30.2,64.419c-0.011-0.021-0.02-0.042-0.026-0.065c-0.014-0.043-0.04-0.107-0.065-0.191
		c-0.07-0.252-0.115-0.511-0.131-0.771c-0.024-0.412,0.017-0.826,0.123-1.226c0.139-0.528,0.392-1.021,0.741-1.44l0.037,0.05
		c-1.225,0.528-2.182,1.533-2.651,2.782l-0.035,0.096l-0.038-0.094c-0.391-0.984-0.349-2.088,0.117-3.04
		c0.203-0.416,0.483-0.789,0.826-1.1l0.032,0.072c-1.396,0.165-2.735,0.652-3.91,1.424l-0.071,0.046l0.016-0.082
		c0.071-0.387,0.207-0.758,0.4-1.1c0.172-0.31,0.387-0.592,0.64-0.84c0.404-0.409,0.892-0.725,1.431-0.925
		c0.344-0.13,0.706-0.204,1.073-0.224c0.128,0,0.226,0,0.29,0h0.075h0.024h-0.024h-0.075c-0.065,0-0.16,0-0.288,0
		c-0.364,0.027-0.721,0.109-1.061,0.241c-0.529,0.204-1.008,0.52-1.403,0.927c-0.246,0.245-0.456,0.524-0.622,0.83
		c-0.188,0.336-0.319,0.701-0.387,1.08l-0.056-0.037c1.183-0.781,2.533-1.273,3.941-1.439l0.129-0.016l-0.098,0.087
		c-0.332,0.304-0.604,0.669-0.8,1.073c-0.458,0.933-0.501,2.015-0.119,2.979H28.16c0.253-0.67,0.648-1.277,1.158-1.78
		c0.444-0.439,0.967-0.789,1.542-1.032l0.122-0.052l-0.085,0.102c-0.346,0.412-0.599,0.895-0.741,1.414
		c-0.108,0.395-0.154,0.803-0.136,1.211c0.012,0.259,0.051,0.516,0.115,0.767c0.021,0.087,0.043,0.152,0.054,0.195
		C30.196,64.367,30.199,64.393,30.2,64.419z"/>
	<path style="fill:#29C7AC;" d="M62.133,62.756c2.014-0.427,4.05,0.619,4.877,2.504"/>
	<path style="fill:#263238;" d="M67.01,65.26c-0.016,0.008-0.139-0.305-0.451-0.738c-0.825-1.146-2.15-1.827-3.563-1.828
		c-0.534,0-0.86,0.08-0.862,0.063c0.073-0.027,0.148-0.046,0.226-0.057c0.211-0.04,0.425-0.061,0.64-0.064
		c1.44-0.032,2.799,0.665,3.613,1.854c0.121,0.176,0.229,0.36,0.32,0.553C66.965,65.111,66.992,65.184,67.01,65.26z"/>
	<g style="opacity:0.3;">
		<path d="M51.02,65.414c-1.162,0.186-2.641,1.064-3.18,2.105c-0.115,0.223-0.01,0.254,0,0.503c0,0.257,0.146,0.491,0.378,0.603
			c0.226,0.092,0.483-0.017,0.575-0.242c0.006-0.014,0.011-0.029,0.016-0.043c-0.139,0.852,0.047,1.726,0.521,2.447
			c0.326-0.184,0.59-0.463,0.755-0.8c-0.062,1.263,0.401,2.496,1.28,3.406l-0.566-2.21c-0.203-0.8-0.4-1.479-0.346-2.301
			c0.057-0.877,0.579-1.615,0.984-2.342c-0.558,0.241-1.202,1.336-1.751,2.003c-0.067-1.177,0.41-2.318,1.294-3.098"/>
	</g>
	<path style="fill:#263238;" d="M50.802,71.209c-0.019-0.029-0.034-0.061-0.045-0.094c-0.024-0.064-0.07-0.16-0.108-0.283
		c-0.121-0.359-0.193-0.732-0.217-1.11c-0.037-0.575,0.03-1.153,0.2-1.704c0.21-0.7,0.583-1.34,1.09-1.867l0.056,0.058
		c-0.467,0.419-0.911,0.864-1.329,1.333c-0.271,0.309-0.509,0.643-0.712,0.998l-0.063,0.11l-0.015-0.124
		c-0.071-0.66,0.05-1.326,0.346-1.92c0.245-0.504,0.61-0.939,1.063-1.27l0.03,0.055c-0.318,0.118-0.609,0.299-0.857,0.529
		c-0.188,0.174-0.35,0.373-0.48,0.592c-0.083,0.14-0.154,0.286-0.215,0.438c-0.017,0.055-0.037,0.107-0.061,0.16
		c-0.002-0.014-0.002-0.028,0-0.042c0.008-0.028,0.018-0.071,0.035-0.124c0.053-0.156,0.121-0.307,0.203-0.449
		c0.131-0.226,0.292-0.432,0.48-0.611c0.251-0.238,0.547-0.425,0.871-0.549l0.214-0.081l-0.186,0.136
		c-0.437,0.329-0.787,0.758-1.022,1.252c-0.285,0.58-0.4,1.23-0.331,1.875l-0.077-0.017c0.207-0.36,0.447-0.699,0.721-1.013
		c0.42-0.471,0.867-0.918,1.339-1.338l0.056,0.059c-0.499,0.516-0.869,1.143-1.082,1.83c-0.172,0.543-0.244,1.112-0.214,1.682
		c0.019,0.375,0.083,0.746,0.19,1.105c0.035,0.126,0.076,0.219,0.096,0.285C50.787,71.142,50.796,71.176,50.802,71.209z"/>
	<path style="fill:#29C7AC;" d="M31.817,71.04c0.628,0.697,1.456,1.186,2.37,1.398c0.101,0.04,0.216,0.024,0.303-0.042
		c0.093-0.102,0.016-0.264-0.061-0.377l-1.016-1.501c0.724,0.571,1.581,0.948,2.491,1.095c0.152,0.023,0.339,0.023,0.416-0.107
		c0.044-0.117,0.031-0.248-0.037-0.354c-0.16-0.343-0.32-0.68-0.509-1.01"/>
	<path style="fill:#263238;" d="M35.774,70.136c0.02,0.024,0.036,0.052,0.05,0.08l0.128,0.24c0.058,0.106,0.123,0.235,0.2,0.381
		c0.041,0.075,0.083,0.154,0.125,0.239c0.053,0.09,0.087,0.189,0.101,0.293c0.004,0.063-0.014,0.124-0.051,0.174
		c-0.041,0.049-0.097,0.082-0.16,0.096c-0.124,0.019-0.25,0.013-0.371-0.018c-0.265-0.046-0.525-0.111-0.779-0.197
		c-0.589-0.196-1.14-0.494-1.627-0.879l0.061-0.055l0.176,0.26l0.566,0.839l0.271,0.398c0.048,0.068,0.083,0.145,0.104,0.226
		c0.025,0.092-0.012,0.188-0.091,0.24c-0.075,0.037-0.162,0.047-0.243,0.025c-0.075-0.013-0.142-0.035-0.213-0.051
		c-0.139-0.041-0.272-0.082-0.396-0.13c-0.234-0.088-0.459-0.195-0.675-0.32c-0.313-0.18-0.603-0.397-0.862-0.647
		c-0.091-0.09-0.16-0.16-0.202-0.213c-0.024-0.025-0.046-0.053-0.064-0.082c0.028,0.02,0.054,0.043,0.077,0.068
		c0.046,0.049,0.117,0.117,0.211,0.202c0.265,0.239,0.557,0.446,0.869,0.62c0.215,0.121,0.439,0.224,0.67,0.308
		c0.125,0.046,0.256,0.087,0.392,0.125c0.136,0.038,0.288,0.091,0.396,0.03c0.052-0.035,0.075-0.101,0.055-0.16
		c-0.019-0.07-0.051-0.137-0.095-0.195c-0.088-0.129-0.177-0.262-0.27-0.396c-0.184-0.271-0.373-0.551-0.568-0.838l-0.176-0.262
		l-0.16-0.224l0.219,0.167c0.69,0.545,1.503,0.914,2.368,1.074c0.112,0.031,0.23,0.038,0.346,0.023
		c0.101-0.014,0.174-0.104,0.168-0.205c-0.011-0.098-0.042-0.19-0.09-0.275c-0.042-0.085-0.082-0.16-0.118-0.242l-0.188-0.385
		l-0.115-0.246C35.795,70.196,35.783,70.167,35.774,70.136z"/>
	<g style="opacity:0.3;">
		<path d="M35.765,61.085c0.354,0.597,0.872,1.079,1.491,1.39c-0.035-0.328-0.172-0.638-0.39-0.886
			c0.675,0.644,1.475,1.141,2.35,1.462c-1.299,0.578-2.82-0.006-3.399-1.305c-0.113-0.252-0.184-0.521-0.21-0.797"/>
	</g>
	<g style="opacity:0.3;">
		<path d="M31.483,50.658c1.27,2.442,5.379,3.648,8.602,3.701c0.995,0.016,2.399,0.751,3.386,0.655
			c2.213-0.213,4.01-1.405,6.227-1.601c1.381-0.116,2.77-0.16,4.135-0.392s1.303-0.394,2.387-1.256
			c1.086-0.862,2.258-1.717,2.24-3.103c-2.038,2.496-4.053,3.269-7.19,4c-3.138,0.73-6.399,0.715-9.617,0.566
			c-3.541-0.16-7.258-0.551-10.168-2.574"/>
	</g>
	<path style="fill:#29C7AC;" d="M42.414,31.918c0.015,0,0.027,0.181,0.076,0.467c0.063,0.373,0.164,0.738,0.303,1.089
		c0.143,0.351,0.32,0.687,0.53,1.001c0.096,0.125,0.185,0.256,0.267,0.391c0,0-0.036-0.027-0.092-0.088
		c-0.08-0.085-0.154-0.175-0.223-0.269c-0.229-0.31-0.416-0.646-0.559-1.003c-0.144-0.359-0.239-0.736-0.285-1.12
		c-0.015-0.115-0.023-0.231-0.025-0.347C42.403,32,42.406,31.958,42.414,31.918z"/>
	<path style="fill:#29C7AC;" d="M43.459,31.52c0.015,0-0.049,0.16-0.111,0.427c-0.08,0.345-0.105,0.7-0.079,1.053
		c0.029,0.353,0.112,0.698,0.245,1.025c0.103,0.253,0.19,0.398,0.178,0.405c-0.014,0.007-0.031-0.03-0.074-0.094
		c-0.06-0.091-0.113-0.187-0.16-0.286c-0.307-0.663-0.366-1.414-0.168-2.117c0.029-0.105,0.066-0.208,0.111-0.307
		C43.434,31.549,43.455,31.51,43.459,31.52z"/>
	<path style="fill:#29C7AC;" d="M23.877,58.111c0.019-0.022,0.041-0.043,0.064-0.062c0.043-0.038,0.105-0.1,0.193-0.16
		c0.246-0.195,0.506-0.372,0.778-0.53c0.903-0.512,1.886-0.867,2.907-1.053c1.018-0.185,2.05-0.287,3.084-0.307
		c0.397-0.01,0.717-0.013,0.938-0.013h0.256c0.03-0.003,0.06-0.003,0.089,0c-0.029,0.007-0.059,0.011-0.089,0.011l-0.254,0.014
		l-0.938,0.039c-1.03,0.033-2.056,0.141-3.071,0.32c-1.013,0.186-1.989,0.529-2.894,1.021c-0.272,0.152-0.534,0.321-0.786,0.505
		C23.978,58.04,23.882,58.117,23.877,58.111z"/>
	<path style="fill:#29C7AC;" d="M46.813,32.214c0,0.015-0.273-0.077-0.719-0.186c-0.258-0.063-0.523-0.095-0.789-0.094
		c-0.324,0.002-0.641,0.092-0.918,0.261c-0.14,0.087-0.262,0.201-0.359,0.334c-0.088,0.126-0.149,0.269-0.182,0.419
		c-0.045,0.261-0.033,0.528,0.034,0.784c0.11,0.441,0.229,0.704,0.213,0.71c-0.036-0.057-0.065-0.117-0.088-0.181
		c-0.073-0.167-0.134-0.339-0.183-0.515c-0.078-0.264-0.096-0.542-0.051-0.813c0.031-0.162,0.096-0.315,0.188-0.451
		c0.103-0.144,0.233-0.266,0.382-0.36c0.29-0.175,0.622-0.267,0.961-0.266c0.271,0.003,0.539,0.042,0.8,0.115
		c0.222,0.06,0.398,0.12,0.521,0.16C46.688,32.153,46.752,32.181,46.813,32.214z"/>
	<path style="fill:#29C7AC;" d="M70.817,72.311c-0.173-1.148-0.735-2.28-1.697-2.935s-2.346-0.731-3.261-0.013l-3.799,5.136
		l8.086,0.034C70.599,74.115,70.908,72.918,70.817,72.311z"/>
	<g style="opacity:0.3;">
		<path d="M65.439,74.426c0.684-0.285,1.188-0.898,1.498-1.57s0.446-1.407,0.582-2.135c0.112-0.604,0.219-1.255-0.045-1.813
			c-0.127-0.006-0.248,0.055-0.319,0.16c-0.07,0.106-0.122,0.225-0.151,0.348c-0.627,1.975-1.592,3.68-3.167,5.016"/>
	</g>
	<g style="opacity:0.3;">
		<path style="fill:#FFFFFF;" d="M41.421,34.306c0.8,2.306,0.901,4.8,0.814,7.23c-0.044,1.213-0.135,2.438-0.514,3.592
			c-0.38,1.153-1.075,2.24-2.109,2.88c-0.976,0.604-2.183,0.762-3.322,0.611s-2.221-0.587-3.246-1.103
			c-1.171-0.589-2.299-1.292-3.208-2.239s-1.654-2.271-1.805-3.572l1.686,0.185c0,0,1.298-0.138,3.315-2.09
			c2.205-2.131,2.606-2.392,4.257-3.502C38.572,35.451,39.961,34.781,41.421,34.306z"/>
	</g>
	<g style="opacity:0.3;">
		<path d="M48.391,48.517c0.655-0.369,1.477-0.258,2.01,0.274c0.523-0.686,1.398-1.004,2.24-0.816
			c-0.5,0.196-0.967,0.471-1.38,0.814c-0.396,0.363-0.681,0.885-0.63,1.419c-0.495-0.532-1.063-0.991-1.688-1.362
			c-0.259-0.159-0.601-0.289-0.843-0.109"/>
	</g>
	<path style="fill:#29C7AC;" d="M53.9,66.543c-1.908,1.369-2.668,3.846-1.857,6.051"/>
	<path style="fill:#263238;" d="M52.043,72.594c-0.013-0.02-0.023-0.041-0.03-0.063c-0.017-0.043-0.043-0.104-0.07-0.188
		c-0.078-0.23-0.138-0.468-0.178-0.709c-0.283-1.619,0.226-3.275,1.368-4.457c0.168-0.175,0.352-0.336,0.545-0.48
		c0.068-0.053,0.125-0.09,0.16-0.115s0.06-0.037,0.062-0.033c-0.065,0.062-0.133,0.12-0.204,0.174
		c-0.184,0.156-0.357,0.324-0.521,0.502c-1.103,1.184-1.602,2.81-1.354,4.409c0.036,0.238,0.087,0.475,0.152,0.707
		C52.002,72.424,52.025,72.508,52.043,72.594z"/>
	<path style="fill:#29C7AC;" d="M57.083,61.004c0.655-0.503,1.499-1.031,2.24-0.678c0.416,0.229,0.699,0.641,0.763,1.111
		c0.059,0.463,0.029,0.935-0.086,1.389c-0.537,2.646-1.705,5.124-3.403,7.224c-0.616,0.761-1.493,1.532-2.45,1.323
		c-0.893-0.197-1.399-1.218-1.347-2.131c0.053-0.914,0.514-1.744,0.94-2.561c1.016-1.92,2-4.025,3.338-5.686"/>
	<path style="fill:#263238;" d="M57.083,61.004c-0.013,0.021-0.026,0.041-0.042,0.061l-0.127,0.171
		c-0.114,0.15-0.279,0.376-0.48,0.672c-0.558,0.844-1.068,1.718-1.529,2.618l-0.961,1.861c-0.338,0.672-0.766,1.367-0.988,2.18
		c-0.119,0.412-0.142,0.848-0.065,1.271c0.081,0.44,0.298,0.843,0.622,1.151c0.168,0.152,0.369,0.262,0.588,0.32
		c0.223,0.059,0.457,0.064,0.683,0.018c0.463-0.119,0.886-0.36,1.223-0.699c0.345-0.334,0.659-0.699,0.938-1.09
		c0.289-0.377,0.548-0.768,0.801-1.154c0.896-1.432,1.574-2.987,2.012-4.618c0.096-0.362,0.178-0.716,0.246-1.06
		c0.072-0.325,0.105-0.658,0.098-0.992c-0.02-0.628-0.35-1.199-0.818-1.39c-0.215-0.091-0.452-0.12-0.683-0.081
		c-0.194,0.032-0.384,0.091-0.563,0.174c-0.248,0.117-0.485,0.257-0.709,0.416l-0.176,0.125c-0.039,0.027-0.061,0.039-0.061,0.039
		l0.056-0.046c0.038-0.032,0.095-0.075,0.171-0.131c0.221-0.167,0.456-0.312,0.705-0.433c0.18-0.088,0.373-0.149,0.57-0.184
		c0.527-0.098,1.057,0.154,1.314,0.624c0.154,0.27,0.24,0.573,0.25,0.884c0.012,0.338-0.02,0.676-0.091,1.006
		c-0.069,0.346-0.148,0.701-0.243,1.065c-0.434,1.638-1.111,3.202-2.008,4.64c-0.25,0.391-0.51,0.781-0.8,1.162
		c-0.282,0.396-0.601,0.764-0.949,1.103c-0.349,0.349-0.784,0.597-1.263,0.718c-0.238,0.049-0.484,0.042-0.72-0.021
		c-0.231-0.063-0.444-0.182-0.62-0.344c-0.336-0.321-0.56-0.74-0.641-1.196c-0.078-0.436-0.055-0.883,0.068-1.307
		c0.229-0.828,0.661-1.522,1-2.191c0.34-0.669,0.676-1.289,0.974-1.857c0.466-0.899,0.985-1.771,1.556-2.608
		c0.204-0.294,0.373-0.517,0.49-0.664l0.137-0.159C57.059,61.038,57.07,61.02,57.083,61.004z"/>
	<g style="opacity:0.3;">
		<path d="M57.163,63.285v0.008c0.16-0.451,0.501-0.581,0.867-0.714s0.81-0.118,1.104,0.138c0.339,0.295,0.382,0.813,0.291,1.253
			c-0.021,0.155-0.086,0.302-0.184,0.424c-0.105,0.122-0.277,0.161-0.425,0.098c-0.159-0.088-0.21-0.319-0.379-0.391
			c-0.17-0.07-0.394,0.089-0.599,0.14c-0.289,0.056-0.577-0.1-0.689-0.371C57.076,63.68,57.08,63.47,57.163,63.285z"/>
	</g>
	<g style="opacity:0.3;">
		<path d="M57.861,61.032c0.168,0.075,0.27,0.25,0.25,0.434c-0.008,0.2-0.051,0.398-0.129,0.584c-0.057,0.159-0.15,0.337-0.32,0.344
			c-0.097-0.003-0.186-0.056-0.233-0.14c-0.046-0.083-0.071-0.176-0.075-0.271c-0.016-0.219,0.018-0.438,0.1-0.641
			c0.035-0.105,0.101-0.198,0.188-0.267c0.091-0.069,0.218-0.069,0.309,0"/>
	</g>
	<g style="opacity:0.3;">
		<path d="M59.777,61.426c0.169,0.074,0.27,0.25,0.252,0.434c-0.009,0.201-0.053,0.398-0.13,0.584
			c-0.056,0.16-0.152,0.338-0.32,0.344c-0.097-0.002-0.186-0.055-0.233-0.139c-0.047-0.084-0.073-0.177-0.075-0.272
			c-0.016-0.218,0.018-0.437,0.098-0.64c0.036-0.106,0.102-0.199,0.19-0.268c0.091-0.069,0.217-0.069,0.309,0"/>
	</g>
	<g style="opacity:0.3;">
		<path d="M58.968,60.693c0.168,0.076,0.269,0.251,0.251,0.435c-0.008,0.2-0.053,0.397-0.129,0.583
			c-0.058,0.16-0.152,0.339-0.32,0.344c-0.097-0.002-0.186-0.055-0.233-0.14c-0.046-0.083-0.071-0.175-0.073-0.271
			c-0.018-0.218,0.016-0.438,0.098-0.64c0.034-0.106,0.101-0.2,0.189-0.267c0.092-0.069,0.217-0.069,0.308,0"/>
	</g>
	<g style="opacity:0.3;">
		<path d="M58.348,67.233c-0.128,0.968-0.392,1.913-0.783,2.808c-0.395,0.898-0.998,1.689-1.76,2.308
			c-0.352,0.275-0.765,0.513-1.211,0.523c-0.633,0.017-1.208-0.437-1.493-1.001c-0.284-0.565-0.319-1.222-0.291-1.852
			c0.306,0.51,0.649,1.055,1.203,1.279c0.495,0.166,1.038,0.107,1.486-0.16c0.442-0.268,0.828-0.617,1.138-1.029
			c0.686-0.838,1.249-1.768,1.674-2.762"/>
	</g>
	<path style="fill:#29C7AC;" d="M22.512,61.131c-0.788-0.241-1.76-0.441-2.339,0.15c-0.308,0.361-0.426,0.847-0.32,1.309
		c0.108,0.456,0.3,0.887,0.566,1.272c1.43,2.29,3.39,4.204,5.715,5.577c0.843,0.496,1.935,0.912,2.757,0.38
		c0.77-0.496,0.885-1.63,0.517-2.468c-0.368-0.836-1.088-1.459-1.778-2.072c-1.623-1.439-3.283-3.068-5.12-4.159"/>
	<path style="fill:#263238;" d="M22.512,61.131c0,0,0.022,0.01,0.065,0.034l0.184,0.108c0.16,0.098,0.398,0.246,0.694,0.449
		c0.826,0.586,1.618,1.221,2.37,1.9l1.563,1.398c0.552,0.506,1.2,1.006,1.704,1.701c0.265,0.354,0.444,0.764,0.523,1.199
		c0.082,0.457,0.018,0.929-0.184,1.347c-0.11,0.214-0.268,0.397-0.461,0.54c-0.199,0.141-0.428,0.234-0.669,0.271
		c-0.492,0.055-0.99-0.024-1.44-0.23c-0.446-0.195-0.875-0.429-1.28-0.699c-0.403-0.256-0.786-0.531-1.155-0.809
		c-0.701-0.541-1.359-1.137-1.968-1.781c-0.554-0.584-1.064-1.207-1.529-1.863c-0.216-0.309-0.416-0.614-0.6-0.913
		c-0.183-0.284-0.331-0.591-0.44-0.911c-0.099-0.294-0.125-0.608-0.074-0.914c0.077-0.53,0.484-0.951,1.011-1.045
		c0.198-0.037,0.4-0.047,0.6-0.029c0.275,0.027,0.546,0.081,0.811,0.16c0.091,0.025,0.16,0.047,0.205,0.063l0.069,0.025
		l-0.071-0.018l-0.208-0.055c-0.265-0.07-0.536-0.118-0.81-0.143c-0.197-0.014-0.395-0.002-0.589,0.035
		c-0.229,0.047-0.442,0.158-0.611,0.32c-0.373,0.344-0.48,0.994-0.278,1.589c0.109,0.315,0.256,0.615,0.438,0.895
		c0.186,0.298,0.386,0.601,0.602,0.907c0.981,1.373,2.162,2.594,3.502,3.619c0.368,0.277,0.749,0.551,1.15,0.8
		c0.399,0.269,0.822,0.499,1.263,0.691c0.434,0.2,0.914,0.278,1.389,0.228c0.23-0.035,0.45-0.123,0.64-0.258
		c0.184-0.133,0.333-0.309,0.435-0.511c0.195-0.401,0.258-0.855,0.179-1.296c-0.076-0.423-0.25-0.822-0.507-1.166
		c-0.493-0.686-1.136-1.186-1.688-1.696l-1.555-1.406c-0.747-0.683-1.532-1.324-2.35-1.92c-0.292-0.208-0.525-0.36-0.684-0.462
		l-0.181-0.115L22.512,61.131z"/>
	<g style="opacity:0.3;">
		<path d="M23.238,63.295L23.238,63.295c-0.309-0.367-0.672-0.37-1.063-0.365c-0.39,0.005-0.8,0.174-0.985,0.516
			c-0.214,0.396-0.074,0.896,0.16,1.279c0.073,0.139,0.184,0.254,0.32,0.332c0.14,0.078,0.315,0.055,0.43-0.057
			c0.12-0.139,0.086-0.371,0.218-0.499s0.402-0.056,0.61-0.079c0.29-0.049,0.505-0.295,0.517-0.588
			C23.449,63.634,23.375,63.44,23.238,63.295z"/>
	</g>
	<g style="opacity:0.3;">
		<path d="M21.793,61.429c-0.131,0.13-0.165,0.33-0.083,0.496c0.076,0.185,0.185,0.354,0.32,0.501
			c0.107,0.126,0.261,0.264,0.418,0.211c0.09-0.036,0.154-0.117,0.169-0.213c0.014-0.094,0.006-0.189-0.024-0.279
			c-0.063-0.211-0.172-0.404-0.32-0.566c-0.07-0.088-0.165-0.152-0.272-0.185c-0.11-0.03-0.227,0.017-0.286,0.114"/>
	</g>
	<g style="opacity:0.3;">
		<path d="M20.138,62.471c-0.131,0.129-0.165,0.328-0.083,0.494c0.076,0.185,0.185,0.354,0.32,0.501
			c0.109,0.126,0.261,0.264,0.419,0.211c0.09-0.036,0.154-0.117,0.17-0.213c0.014-0.094,0.005-0.19-0.026-0.28
			c-0.062-0.211-0.171-0.404-0.32-0.566c-0.07-0.087-0.165-0.151-0.272-0.184c-0.11-0.03-0.227,0.016-0.287,0.113"/>
	</g>
	<g style="opacity:0.3;">
		<path d="M20.64,61.501c-0.131,0.13-0.165,0.329-0.083,0.494c0.076,0.185,0.185,0.354,0.32,0.501
			c0.108,0.127,0.261,0.264,0.419,0.211c0.09-0.037,0.154-0.117,0.17-0.213c0.014-0.094,0.005-0.189-0.026-0.279
			c-0.062-0.211-0.171-0.404-0.32-0.566c-0.07-0.088-0.165-0.152-0.272-0.185c-0.11-0.03-0.227,0.017-0.287,0.114"/>
	</g>
	<g style="opacity:0.3;">
		<path d="M23.52,67.408c0.457,0.859,1.033,1.652,1.71,2.352c0.681,0.705,1.521,1.236,2.45,1.549
			c0.425,0.137,0.894,0.213,1.316,0.067c0.599-0.206,0.978-0.832,1.046-1.461c0.069-0.628-0.123-1.257-0.376-1.837
			c-0.107,0.586-0.238,1.217-0.68,1.616c-0.402,0.329-0.928,0.466-1.44,0.374c-0.508-0.095-0.992-0.287-1.427-0.564
			c-0.935-0.545-1.788-1.218-2.535-2"/>
	</g>
	<g style="opacity:0.3;">
		<path style="fill:#FFFFFF;" d="M22.925,66.539c-0.046,0.064-0.093,0.13-0.138,0.195c0.808-1.303,2.518-1.703,3.82-0.896
			c1.302,0.808,1.704,2.518,0.896,3.82c-0.045,0.072-0.092,0.142-0.144,0.209c-1.799-0.735-3.427-1.833-4.784-3.225"/>
	</g>
	<path style="fill:#263238;" d="M68.096,64.96c0.002,0.036-0.001,0.071-0.008,0.107c-0.012,0.08-0.025,0.181-0.041,0.308
		c-0.037,0.267-0.1,0.65-0.188,1.119c-0.218,1.238-0.545,2.454-0.979,3.634c-0.249,0.647-0.55,1.273-0.901,1.872
		c-0.081,0.138-0.169,0.266-0.249,0.394l-0.122,0.188l-0.129,0.175l-0.246,0.327c-0.086,0.101-0.17,0.195-0.25,0.285
		c-0.08,0.089-0.152,0.181-0.232,0.255l-0.221,0.212l-0.193,0.185l-0.176,0.139l-0.245,0.192c-0.026,0.024-0.058,0.044-0.089,0.061
		c0.023-0.026,0.05-0.052,0.078-0.075l0.234-0.201l0.17-0.145l0.188-0.188l0.216-0.214c0.079-0.076,0.147-0.169,0.226-0.258
		l0.243-0.287l0.241-0.33l0.127-0.172c0.04-0.061,0.078-0.123,0.118-0.188c0.08-0.128,0.16-0.256,0.247-0.393
		c0.34-0.597,0.635-1.219,0.881-1.861c0.434-1.174,0.771-2.381,1.007-3.609c0.095-0.471,0.159-0.854,0.213-1.121
		c0.022-0.125,0.042-0.225,0.056-0.304C68.076,65.029,68.085,64.994,68.096,64.96z"/>
	<path style="fill:#263238;" d="M31.287,55.254c0.021-0.028,0.045-0.055,0.073-0.076l0.223-0.208c0.098-0.091,0.217-0.2,0.361-0.32
		s0.304-0.266,0.49-0.413c0.366-0.302,0.816-0.64,1.33-1.008c0.514-0.367,1.094-0.734,1.722-1.1c0.627-0.364,1.243-0.678,1.81-0.946
		s1.091-0.48,1.536-0.651c0.221-0.088,0.424-0.16,0.602-0.221c0.177-0.061,0.333-0.113,0.459-0.152l0.293-0.09
		c0.033-0.012,0.067-0.021,0.103-0.025c-0.032,0.017-0.064,0.031-0.098,0.042l-0.288,0.104c-0.125,0.043-0.277,0.098-0.453,0.159
		c-0.176,0.063-0.378,0.14-0.597,0.23c-0.44,0.175-0.96,0.399-1.523,0.667c-0.563,0.268-1.168,0.594-1.808,0.952
		s-1.203,0.736-1.72,1.091c-0.517,0.355-0.96,0.695-1.336,0.99c-0.187,0.145-0.35,0.283-0.496,0.404
		c-0.146,0.119-0.27,0.223-0.369,0.311l-0.234,0.196C31.341,55.215,31.315,55.236,31.287,55.254z"/>
	<path style="fill:#263238;" d="M26.782,52.582c0,0,0.01-0.008,0.029-0.021l0.09-0.062l0.352-0.224
		c0.152-0.098,0.339-0.215,0.563-0.341s0.48-0.28,0.762-0.427l0.448-0.239c0.16-0.081,0.32-0.159,0.495-0.243
		c0.339-0.171,0.713-0.331,1.104-0.506c0.789-0.332,1.669-0.665,2.613-0.959c0.944-0.295,1.861-0.508,2.701-0.674
		c0.421-0.076,0.821-0.152,1.199-0.202c0.187-0.025,0.369-0.056,0.544-0.075l0.505-0.056c0.32-0.038,0.613-0.055,0.869-0.073
		c0.256-0.02,0.48-0.031,0.659-0.035l0.416-0.012h0.107c0.013-0.002,0.026-0.002,0.039,0h-0.037l-0.109,0.01l-0.414,0.027
		c-0.181,0.01-0.402,0.021-0.656,0.048c-0.254,0.025-0.547,0.043-0.867,0.087l-0.504,0.061c-0.174,0.021-0.355,0.053-0.542,0.08
		c-0.376,0.051-0.774,0.131-1.193,0.207c-0.835,0.172-1.749,0.393-2.691,0.679s-1.819,0.621-2.606,0.949
		c-0.39,0.171-0.765,0.329-1.104,0.497c-0.171,0.084-0.339,0.16-0.496,0.238l-0.449,0.234c-0.288,0.144-0.541,0.291-0.765,0.414
		c-0.224,0.123-0.416,0.235-0.571,0.328l-0.358,0.211l-0.094,0.053C26.795,52.579,26.782,52.584,26.782,52.582z"/>
	<path style="fill:#263238;" d="M45.85,47.309c0.01,0.024-0.403,0.199-0.859,0.504c-0.456,0.306-0.777,0.617-0.8,0.599
		c0.437-0.516,1.011-0.897,1.654-1.103H45.85z"/>
	<path style="fill:#263238;" d="M48.557,48.178c0,0.016-0.236-0.092-0.629-0.19c-0.51-0.134-1.039-0.183-1.566-0.144
		c-0.526,0.021-1.042,0.158-1.51,0.4c-0.187,0.113-0.348,0.264-0.471,0.442c0.016-0.059,0.044-0.112,0.082-0.16
		c0.097-0.133,0.219-0.245,0.357-0.333c0.35-0.229,0.911-0.387,1.535-0.436c0.535-0.038,1.073,0.02,1.588,0.17
		c0.156,0.043,0.309,0.098,0.457,0.16C48.455,48.112,48.508,48.143,48.557,48.178z"/>
	<path style="fill:#F5F5F5;" d="M43.299,49.512l0.188,0.448c0.055,0.116,0.094,0.239,0.112,0.366
		c0.019,0.129-0.021,0.26-0.106,0.358c-0.147,0.126-0.361,0.136-0.521,0.027c-0.15-0.112-0.264-0.27-0.319-0.45
		c-0.067-0.176-0.112-0.361-0.194-0.53c0.211-0.192,0.31-0.479,0.262-0.761C42.719,48.971,42.88,49.483,43.299,49.512z"/>
	<path style="fill:#263238;" d="M40.687,47.88c0.286-0.577,0.803-1.007,1.423-1.185c1.02-0.268,2.08,0.801,2.08,0.801
		s-1.234-0.363-1.217,0.25c0.018,0.612,0.381,0.598-0.029,1.001c-0.409,0.403-1.111-0.021-1.279-0.496l-0.33-0.464L40.687,47.88z"/>
	<path style="fill:#263238;" d="M44.914,48.48c0,0,0,0.021,0.008,0.057c0.005,0.057,0.005,0.113,0,0.168
		c-0.029,0.205-0.112,0.399-0.24,0.563c-0.189,0.25-0.472,0.411-0.782,0.447c-0.386,0.029-0.762-0.127-1.013-0.42
		c-0.123-0.141-0.209-0.311-0.252-0.492l0.078-0.021c0.098,0.305,0.049,0.638-0.133,0.902c-0.248,0.348-0.689,0.497-1.099,0.373
		c-0.042-0.014-0.083-0.029-0.122-0.051c-0.025-0.014-0.037-0.021-0.037-0.025c0-0.003,0.059,0.023,0.168,0.049
		c0.153,0.035,0.313,0.035,0.467,0c0.23-0.053,0.432-0.19,0.564-0.387c0.164-0.246,0.206-0.555,0.115-0.836l0.078-0.021
		c0.041,0.168,0.122,0.324,0.235,0.455c0.233,0.273,0.583,0.422,0.942,0.4c0.293-0.033,0.561-0.18,0.744-0.41
		c0.127-0.153,0.214-0.336,0.253-0.531C44.91,48.564,44.906,48.48,44.914,48.48z"/>
	<path style="fill:#FFFFFF;" d="M42.936,46.846c-0.105,0.017-0.213,0.021-0.319,0.016c-0.259-0.004-0.517,0.03-0.767,0.099
		c-0.246,0.071-0.471,0.206-0.649,0.391c-0.133,0.146-0.181,0.263-0.194,0.257c0.021-0.11,0.074-0.213,0.15-0.295
		c0.176-0.209,0.408-0.359,0.67-0.433c0.257-0.071,0.525-0.098,0.791-0.078C42.726,46.8,42.833,46.814,42.936,46.846z"/>
	<path style="fill:#263238;" d="M43.243,50.822c-0.154-0.26-0.271-0.539-0.346-0.832c-0.1-0.284-0.158-0.582-0.173-0.883
		c0.024,0,0.109,0.387,0.253,0.859C43.121,50.438,43.266,50.813,43.243,50.822z"/>
	<path style="fill:#263238;" d="M31.851,52.616c0.02-0.021,0.041-0.04,0.064-0.056l0.194-0.15c0.16-0.131,0.421-0.308,0.739-0.516
		s0.706-0.441,1.148-0.682c0.443-0.24,0.942-0.48,1.48-0.699c0.538-0.219,1.061-0.398,1.542-0.544
		c0.482-0.146,0.923-0.251,1.296-0.32c0.373-0.068,0.677-0.128,0.888-0.159l0.243-0.031c0.028-0.003,0.057-0.003,0.085,0
		c-0.026,0.012-0.055,0.02-0.083,0.022l-0.24,0.045c-0.209,0.035-0.51,0.097-0.88,0.179c-0.37,0.084-0.8,0.195-1.28,0.342
		c-0.48,0.145-0.998,0.329-1.534,0.547c-0.536,0.217-1.03,0.459-1.475,0.691c-0.445,0.231-0.832,0.461-1.154,0.662
		s-0.576,0.371-0.75,0.492l-0.203,0.137C31.878,52.605,31.853,52.619,31.851,52.616z"/>
	<circle style="fill:#F5F5F5;" cx="36.359" cy="44.731" r="3.608"/>
	<path style="fill:#263238;" d="M39.97,44.736c0,1.74-1.176,3.153-2.171,3.153S36,46.477,36,44.736c0-1.741,0.8-3.155,1.805-3.155
		S39.97,42.994,39.97,44.736z"/>
	<circle style="fill:#FFFFFF;" cx="38.599" cy="42.952" r="0.618"/>
	<path style="fill:#FFFFFF;" d="M37.001,47.027c-0.036-0.047-0.066-0.097-0.089-0.15c-0.076-0.142-0.14-0.289-0.194-0.439
		c-0.083-0.225-0.147-0.455-0.193-0.688c-0.055-0.287-0.084-0.579-0.09-0.87c-0.001-0.293,0.023-0.586,0.072-0.874
		c0.041-0.235,0.101-0.466,0.179-0.691c0.05-0.151,0.111-0.3,0.184-0.442c0.021-0.058,0.05-0.111,0.086-0.16
		c0.014,0-0.096,0.231-0.215,0.615c-0.068,0.225-0.122,0.453-0.16,0.686c-0.044,0.283-0.065,0.571-0.064,0.859
		c0.005,0.287,0.032,0.574,0.082,0.857c0.042,0.23,0.1,0.459,0.174,0.683C36.901,46.799,37.016,47.021,37.001,47.027z"/>
	<path style="fill:#263238;" d="M35.445,40.141c-0.01,0.117-0.144,0.207-0.32,0.29c-0.176,0.083-0.415,0.16-0.65,0.267
		c-0.235,0.107-0.441,0.2-0.618,0.28c-0.176,0.08-0.32,0.128-0.424,0.065s-0.117-0.236,0-0.469c0.158-0.292,0.415-0.52,0.725-0.64
		c0.297-0.131,0.628-0.161,0.944-0.086C35.328,39.909,35.455,40.029,35.445,40.141z"/>
	<path style="fill:#29C7AC;" d="M18.226,70.88l0.811-1.271c3.863,4.243,16.624,9.29,28.049-2.117
		c4.908-4.898,4.511-13.177,4.511-13.177l-0.976-3.065h0.976c0,0,2.829,5.217-0.133,12.049c0,0-3.04,8.098-12.347,11.041
		C24.435,78.977,18.226,70.88,18.226,70.88z"/>
	<g style="opacity:0.7;">
		<path style="fill:#FFFFFF;" d="M18.226,70.88l0.811-1.271c3.863,4.243,16.624,9.29,28.049-2.117
			c4.908-4.898,4.511-13.177,4.511-13.177l-0.976-3.065h0.976c0,0,2.829,5.217-0.133,12.049c0,0-3.04,8.098-12.347,11.041
			C24.435,78.977,18.226,70.88,18.226,70.88z"/>
	</g>
	<circle style="fill:#29C7AC;" cx="13.102" cy="67.528" r="6.936"/>
	<g style="opacity:0.7;">
		<circle style="fill:#FFFFFF;" cx="13.102" cy="67.528" r="6.936"/>
	</g>
	<path style="fill:#29C7AC;" d="M14.765,60.785c-0.003,0.045-0.012,0.089-0.024,0.132c-0.019,0.093-0.048,0.218-0.082,0.376
		c-0.019,0.082-0.04,0.173-0.063,0.27c-0.022,0.098-0.058,0.204-0.089,0.32c-0.069,0.228-0.134,0.49-0.24,0.77l-0.16,0.441
		c-0.055,0.16-0.124,0.31-0.189,0.473c-0.125,0.328-0.292,0.666-0.459,1.022c-0.385,0.767-0.824,1.503-1.315,2.206
		c-0.501,0.696-1.051,1.355-1.646,1.973c-0.283,0.277-0.545,0.545-0.814,0.771c-0.131,0.115-0.256,0.232-0.382,0.334l-0.366,0.293
		c-0.229,0.192-0.455,0.342-0.64,0.48c-0.098,0.068-0.186,0.135-0.271,0.19l-0.235,0.148l-0.32,0.202
		c-0.037,0.025-0.076,0.048-0.117,0.065c0.034-0.029,0.07-0.056,0.107-0.08l0.32-0.214l0.23-0.16
		c0.083-0.06,0.169-0.127,0.266-0.195c0.188-0.143,0.411-0.297,0.64-0.49l0.362-0.294c0.126-0.104,0.248-0.221,0.377-0.338
		c0.266-0.229,0.526-0.497,0.8-0.774c0.586-0.615,1.129-1.271,1.625-1.961c0.489-0.699,0.928-1.432,1.315-2.192
		c0.17-0.355,0.336-0.689,0.464-1.015c0.067-0.16,0.137-0.32,0.193-0.469s0.109-0.299,0.16-0.438
		c0.109-0.278,0.179-0.539,0.251-0.763c0.034-0.113,0.069-0.22,0.096-0.32s0.048-0.188,0.069-0.27
		c0.042-0.159,0.073-0.279,0.098-0.371C14.736,60.867,14.749,60.826,14.765,60.785z"/>
	<path style="fill:#29C7AC;" d="M16.405,61.492c-0.005,0.048-0.014,0.094-0.027,0.14c-0.022,0.098-0.053,0.229-0.093,0.396
		c-0.021,0.086-0.044,0.182-0.07,0.286c-0.025,0.104-0.063,0.214-0.099,0.335c-0.075,0.238-0.147,0.517-0.264,0.809l-0.171,0.467
		c-0.06,0.159-0.138,0.319-0.21,0.495c-0.139,0.345-0.32,0.698-0.507,1.071c-0.426,0.801-0.913,1.568-1.456,2.294
		c-0.553,0.718-1.159,1.394-1.813,2.021c-0.307,0.283-0.598,0.555-0.89,0.785c-0.144,0.117-0.278,0.237-0.417,0.338l-0.398,0.297
		c-0.248,0.193-0.493,0.344-0.701,0.479s-0.392,0.253-0.544,0.341L8.392,72.25c-0.04,0.025-0.082,0.047-0.125,0.066
		c0.037-0.029,0.076-0.057,0.117-0.081l0.343-0.218c0.15-0.093,0.333-0.207,0.536-0.352c0.204-0.146,0.447-0.298,0.693-0.493
		l0.392-0.293c0.138-0.103,0.271-0.224,0.413-0.341c0.29-0.232,0.576-0.504,0.882-0.787c0.647-0.629,1.248-1.304,1.798-2.02
		c0.541-0.722,1.026-1.483,1.453-2.277c0.189-0.372,0.372-0.723,0.514-1.064c0.072-0.17,0.16-0.33,0.211-0.491
		s0.12-0.32,0.176-0.461c0.12-0.293,0.195-0.566,0.275-0.8c0.039-0.12,0.078-0.23,0.107-0.333s0.053-0.196,0.075-0.283
		c0.047-0.16,0.082-0.294,0.109-0.391C16.372,61.585,16.387,61.538,16.405,61.492z"/>
	<path style="fill:#29C7AC;" d="M17.92,62.739c-0.008,0.047-0.02,0.093-0.035,0.138c-0.029,0.098-0.069,0.227-0.118,0.394
		c-0.026,0.085-0.056,0.179-0.086,0.281c-0.031,0.103-0.077,0.213-0.12,0.333c-0.09,0.235-0.181,0.509-0.32,0.8l-0.197,0.46
		c-0.068,0.16-0.152,0.319-0.233,0.489c-0.16,0.339-0.355,0.688-0.557,1.058c-0.455,0.789-0.964,1.548-1.521,2.269
		c-0.572,0.714-1.192,1.387-1.856,2.015c-0.32,0.283-0.604,0.555-0.9,0.787c-0.146,0.117-0.282,0.234-0.423,0.339l-0.401,0.298
		c-0.253,0.193-0.498,0.346-0.707,0.48c-0.106,0.068-0.203,0.136-0.296,0.191l-0.254,0.15l-0.355,0.205
		c-0.041,0.025-0.083,0.047-0.126,0.066c0.037-0.029,0.077-0.057,0.119-0.081l0.345-0.218l0.251-0.16
		c0.091-0.057,0.187-0.126,0.291-0.196c0.207-0.146,0.448-0.3,0.698-0.496c0.128-0.097,0.261-0.195,0.398-0.301
		s0.272-0.224,0.417-0.343c0.291-0.231,0.583-0.506,0.891-0.787c0.658-0.629,1.274-1.301,1.843-2.011
		c0.56-0.717,1.072-1.47,1.533-2.255c0.203-0.367,0.403-0.712,0.563-1.049c0.082-0.16,0.16-0.32,0.237-0.48
		c0.077-0.16,0.136-0.313,0.2-0.456c0.135-0.288,0.229-0.56,0.32-0.8c0.046-0.117,0.089-0.226,0.126-0.328
		c0.037-0.103,0.065-0.195,0.094-0.28c0.056-0.159,0.101-0.291,0.133-0.388C17.885,62.821,17.901,62.779,17.92,62.739z"/>
	<path style="fill:#29C7AC;" d="M19.739,69.32c-0.056-0.014-0.11-0.035-0.16-0.064c-0.096-0.045-0.235-0.115-0.405-0.203
		c-0.339-0.176-0.8-0.432-1.304-0.732c-0.504-0.301-0.942-0.591-1.258-0.809c-0.16-0.108-0.283-0.198-0.37-0.264
		c-0.047-0.029-0.09-0.065-0.128-0.105c0.052,0.02,0.102,0.047,0.147,0.08l0.383,0.24c0.32,0.204,0.77,0.479,1.269,0.785
		s0.96,0.564,1.29,0.754l0.392,0.225C19.647,69.251,19.696,69.282,19.739,69.32z"/>
	<path style="fill:#29C7AC;" d="M20.032,67.819c-0.162-0.091-0.316-0.192-0.464-0.304c-0.283-0.193-0.677-0.457-1.12-0.729
		c-0.443-0.271-0.861-0.499-1.162-0.666c-0.167-0.082-0.327-0.176-0.48-0.281c0.049,0.012,0.097,0.029,0.141,0.055
		c0.088,0.038,0.213,0.098,0.366,0.174c0.307,0.16,0.728,0.377,1.178,0.648s0.838,0.544,1.12,0.75
		c0.138,0.104,0.248,0.189,0.32,0.252C20.003,67.781,20.037,67.816,20.032,67.819z"/>
	<path style="fill:#29C7AC;" d="M15.758,73.792c-0.024,0-0.078-1.271-0.122-2.84c-0.043-1.569-0.061-2.843-0.038-2.843
		c0.022,0,0.077,1.27,0.122,2.84C15.765,72.519,15.781,73.792,15.758,73.792z"/>
	<path style="fill:#29C7AC;" d="M12.339,74.588c-0.042-0.529-0.056-1.06-0.042-1.59c-0.015-0.529-0.001-1.061,0.042-1.588
		c0.041,0.527,0.055,1.059,0.042,1.588C12.394,73.528,12.38,74.059,12.339,74.588z"/>
	<path style="fill:#29C7AC;" d="M14.019,74.4c-0.022,0-0.035-1.041-0.025-2.322s0.034-2.322,0.058-2.322s0.034,1.039,0.025,2.322
		C14.069,73.361,14.042,74.4,14.019,74.4z"/>
	<path style="fill:#29C7AC;" d="M10.474,68.767c-0.013,0.019-0.918-0.565-2.021-1.306c-1.102-0.74-1.989-1.357-1.976-1.381
		c0.013-0.023,0.918,0.564,2.022,1.306S10.486,68.747,10.474,68.767z"/>
	<path style="fill:#29C7AC;" d="M9.266,69.76c-0.048-0.007-0.095-0.022-0.138-0.045c-0.085-0.033-0.208-0.088-0.357-0.16
		c-0.384-0.188-0.758-0.396-1.12-0.625c-0.426-0.27-0.8-0.536-1.06-0.734c-0.147-0.101-0.285-0.214-0.411-0.34
		c0.155,0.088,0.305,0.185,0.446,0.292c0.271,0.187,0.64,0.444,1.069,0.712c0.429,0.268,0.819,0.488,1.109,0.64
		C8.963,69.577,9.117,69.664,9.266,69.76z"/>
	<path style="fill:#29C7AC;" d="M13.429,64.576c-0.078,0.037-0.16,0.068-0.243,0.093c-0.096,0.036-0.195,0.065-0.294,0.091
		c-0.115,0.032-0.246,0.068-0.394,0.1c-0.345,0.074-0.695,0.128-1.046,0.16c-0.431,0.038-0.864,0.051-1.296,0.039
		c-0.433-0.016-0.863-0.055-1.291-0.119c-0.349-0.055-0.695-0.128-1.036-0.221c-0.146-0.037-0.275-0.078-0.389-0.115
		s-0.213-0.07-0.29-0.103c-0.083-0.027-0.164-0.062-0.242-0.103c0.085,0.018,0.169,0.041,0.251,0.072
		c0.08,0.027,0.177,0.057,0.292,0.088c0.115,0.03,0.245,0.07,0.391,0.104c0.291,0.076,0.64,0.14,1.032,0.201
		c0.425,0.06,0.852,0.098,1.28,0.113c0.427,0.01,0.854-0.001,1.28-0.034c0.351-0.028,0.7-0.076,1.045-0.143
		c0.149-0.025,0.28-0.06,0.395-0.087c0.115-0.026,0.216-0.053,0.296-0.076C13.255,64.607,13.341,64.588,13.429,64.576z"/>
	<path style="fill:#29C7AC;" d="M14.195,62.781c-0.076,0.042-0.154,0.078-0.235,0.108c-0.077,0.035-0.173,0.07-0.285,0.11
		c-0.112,0.04-0.24,0.086-0.382,0.128c-0.336,0.103-0.677,0.188-1.022,0.253c-0.423,0.077-0.851,0.131-1.28,0.16
		c-0.429,0.025-0.86,0.025-1.29,0c-0.35-0.023-0.699-0.068-1.043-0.138c-0.149-0.026-0.28-0.062-0.396-0.091
		c-0.098-0.025-0.196-0.055-0.291-0.088c-0.083-0.025-0.165-0.057-0.243-0.094c0.086,0.013,0.171,0.033,0.253,0.063
		c0.078,0.024,0.177,0.049,0.292,0.072s0.247,0.058,0.394,0.08c0.344,0.059,0.69,0.099,1.039,0.118
		c0.427,0.02,0.854,0.016,1.28-0.011c0.426-0.032,0.85-0.086,1.271-0.16c0.386-0.075,0.733-0.15,1.018-0.234
		c0.144-0.037,0.272-0.08,0.386-0.116s0.209-0.065,0.288-0.097C14.028,62.816,14.111,62.795,14.195,62.781z"/>
	<path style="fill:#29C7AC;" d="M14.669,61.2c-0.067,0.037-0.138,0.067-0.211,0.088c-0.138,0.053-0.341,0.122-0.592,0.198
		c-0.658,0.203-1.33,0.354-2.011,0.453c-0.682,0.1-1.371,0.139-2.059,0.117c-0.264-0.012-0.48-0.027-0.624-0.045
		c-0.077-0.005-0.153-0.017-0.228-0.035c0.077-0.008,0.154-0.008,0.23,0c0.146,0.008,0.358,0.014,0.623,0.018
		c0.684,0.006,1.366-0.04,2.043-0.137c0.678-0.1,1.348-0.243,2.008-0.428c0.252-0.07,0.458-0.129,0.598-0.172
		C14.519,61.232,14.593,61.213,14.669,61.2z"/>
	<path style="fill:#29C7AC;" d="M17.472,68.023c-0.275,0.362-0.571,0.707-0.888,1.033c-0.296,0.344-0.613,0.67-0.949,0.977
		c0.275-0.361,0.571-0.707,0.888-1.033C16.819,68.656,17.136,68.33,17.472,68.023z"/>
	<path style="fill:#29C7AC;" d="M18.803,68.811c-0.017,0.049-0.042,0.094-0.072,0.135c-0.051,0.085-0.131,0.202-0.235,0.344
		c-0.546,0.74-1.244,1.354-2.046,1.803c-0.16,0.084-0.28,0.148-0.37,0.188c-0.045,0.025-0.093,0.044-0.143,0.055
		c0-0.011,0.186-0.111,0.48-0.294c0.386-0.236,0.752-0.504,1.095-0.8c0.338-0.302,0.651-0.631,0.934-0.984
		C18.669,68.98,18.792,68.8,18.803,68.811z"/>
	<path style="fill:#29C7AC;" d="M19.208,69.521c-0.06,0.637-0.386,1.217-0.897,1.6c0.201-0.234,0.384-0.484,0.547-0.746
		C18.995,70.1,19.112,69.814,19.208,69.521z"/>
	<path style="fill:#29C7AC;" d="M20.55,70.992c-0.048,0.258-0.166,0.497-0.341,0.692c-0.153,0.213-0.363,0.38-0.604,0.48
		c0.191-0.166,0.372-0.345,0.541-0.533C20.293,71.427,20.428,71.213,20.55,70.992z"/>
	<path style="fill:#29C7AC;" d="M22.72,72.32c0.007,0.275-0.065,0.549-0.208,0.785c-0.12,0.249-0.311,0.457-0.549,0.599
		c0.179-0.198,0.339-0.413,0.48-0.64C22.557,72.824,22.65,72.576,22.72,72.32z"/>
	<path style="fill:#29C7AC;" d="M25.205,73.514c0.06,0.26,0.032,0.531-0.078,0.774c-0.085,0.252-0.249,0.47-0.467,0.62
		C24.993,74.519,25.185,74.027,25.205,73.514z"/>
	<path style="fill:#29C7AC;" d="M27.499,75.561c-0.024-0.009,0.072-0.32,0.095-0.711s-0.034-0.712-0.01-0.717
		C27.737,74.602,27.707,75.112,27.499,75.561z"/>
	<path style="fill:#29C7AC;" d="M29.379,75.697c-0.022-0.01,0.093-0.287,0.123-0.65s-0.032-0.656,0-0.661
		c0.16,0.433,0.117,0.914-0.117,1.312H29.379z"/>
	<path style="fill:#29C7AC;" d="M32.01,75.68c-0.024,0,0.014-0.273-0.029-0.602c-0.043-0.328-0.146-0.579-0.124-0.588
		c0.122,0.17,0.193,0.37,0.207,0.578C32.104,75.273,32.085,75.485,32.01,75.68z"/>
	<path style="fill:#29C7AC;" d="M33.827,75.52c-0.025,0-0.025-0.258-0.112-0.557s-0.216-0.521-0.195-0.534
		C33.779,74.729,33.892,75.129,33.827,75.52z"/>
	<path style="fill:#29C7AC;" d="M35.96,75.051c-0.025,0-0.013-0.251-0.107-0.537c-0.095-0.287-0.247-0.48-0.226-0.499
		C35.916,74.275,36.043,74.671,35.96,75.051z"/>
	<path style="fill:#29C7AC;" d="M38.585,74.517c-0.025,0-0.029-0.28-0.146-0.599s-0.293-0.535-0.273-0.552
		C38.487,73.657,38.645,74.088,38.585,74.517z"/>
	<path style="fill:#29C7AC;" d="M40.8,73.652c-0.024,0-0.112-0.283-0.301-0.6s-0.398-0.534-0.381-0.552
		C40.484,72.783,40.729,73.195,40.8,73.652L40.8,73.652z"/>
	<path style="fill:#29C7AC;" d="M43.275,72.355c-0.024,0-0.1-0.301-0.301-0.624s-0.438-0.528-0.423-0.548
		C42.956,71.446,43.222,71.876,43.275,72.355L43.275,72.355z"/>
	<path style="fill:#29C7AC;" d="M45.693,70.623c-0.105-0.188-0.225-0.366-0.354-0.537c-0.15-0.152-0.311-0.295-0.48-0.426
		c0.217,0.062,0.408,0.191,0.545,0.372C45.562,70.193,45.662,70.4,45.693,70.623z"/>
	<path style="fill:#29C7AC;" d="M47.764,68.854c-0.021,0.015-0.213-0.243-0.504-0.506c-0.292-0.263-0.564-0.434-0.551-0.456
		c0.229,0.086,0.436,0.22,0.606,0.394C47.504,68.441,47.656,68.635,47.764,68.854z"/>
	<path style="fill:#29C7AC;" d="M49.617,66.549c-0.021,0.013-0.18-0.246-0.462-0.48c-0.282-0.233-0.562-0.352-0.552-0.375
		c0.451,0.115,0.824,0.432,1.014,0.857V66.549z"/>
	<path style="fill:#29C7AC;" d="M51.271,63.805c-0.187-0.149-0.382-0.288-0.584-0.416c-0.216-0.102-0.437-0.192-0.663-0.271
		c0.248-0.001,0.492,0.067,0.703,0.198C50.951,63.424,51.14,63.594,51.271,63.805z"/>
	<path style="fill:#29C7AC;" d="M52.275,60.84c-0.432-0.25-0.929-0.367-1.428-0.336C51.35,60.358,51.891,60.486,52.275,60.84z"/>
	<path style="fill:#29C7AC;" d="M52.722,57.656c-0.009,0.023-0.269-0.067-0.604-0.103c-0.334-0.035-0.608,0-0.61-0.032
		C51.914,57.406,52.35,57.455,52.722,57.656z"/>
	<path style="fill:#29C7AC;" d="M52.557,54.467c-0.15,0.02-0.303,0.025-0.454,0.02c-0.15,0.02-0.302,0.027-0.453,0.022
		C51.936,54.383,52.26,54.367,52.557,54.467L52.557,54.467z"/>
	<path style="fill:#29C7AC;" d="M51.904,52.277c-0.158-0.033-0.319-0.048-0.48-0.044c-0.156,0.03-0.309,0.079-0.454,0.143
		c0-0.008,0.028-0.054,0.105-0.105c0.103-0.065,0.218-0.107,0.339-0.12c0.121-0.014,0.244,0.002,0.357,0.045
		C51.863,52.229,51.908,52.268,51.904,52.277z"/>
	<g style="opacity:0.3;">
		<path d="M41.053,63.04c0.775,1.474,2.586,2.23,4.24,2.028c1.654-0.201,3.128-1.23,4.16-2.542c0.76-0.97,1.322-2.226,1.01-3.416
			c-1.703,3.539-5.848,5.165-9.503,3.728"/>
	</g>
	<path style="fill:#29C7AC;" d="M50.736,50.359c-0.772-1.189-0.471-2.777,0.685-3.602c0.441-0.319,0.974-0.49,1.392-0.836
		c0.516-0.453,0.828-1.094,0.864-1.779c0.03-0.681-0.12-1.357-0.437-1.96l0.444-0.22l0.038,0.049
		c1.104,1.448,0.824,3.518-0.625,4.621c-0.172,0.131-0.355,0.244-0.549,0.338c-0.333,0.153-0.646,0.346-0.933,0.574
		c-0.556,0.48-0.328,1.026-0.328,1.026"/>
	<g style="opacity:0.7;">
		<path style="fill:#FFFFFF;" d="M50.736,50.359c-0.772-1.189-0.471-2.777,0.685-3.602c0.441-0.319,0.974-0.49,1.392-0.836
			c0.516-0.453,0.828-1.094,0.864-1.779c0.03-0.681-0.12-1.357-0.437-1.96l0.444-0.22l0.038,0.049
			c1.104,1.448,0.824,3.518-0.625,4.621c-0.172,0.131-0.355,0.244-0.549,0.338c-0.333,0.153-0.646,0.346-0.933,0.574
			c-0.556,0.48-0.328,1.026-0.328,1.026"/>
	</g>
	<path style="fill:#29C7AC;" d="M51.359,48.6c-0.181-0.035-0.365-0.052-0.55-0.048c-0.183,0.03-0.362,0.079-0.534,0.149
		C50.574,48.43,51.017,48.389,51.359,48.6z"/>
	<path style="fill:#29C7AC;" d="M51.779,47.379c-0.022,0.008-0.093-0.131-0.225-0.262c-0.131-0.132-0.268-0.205-0.26-0.228
		s0.174,0.021,0.319,0.168S51.8,47.373,51.779,47.379z"/>
	<path style="fill:#29C7AC;" d="M53.349,46.451c-0.022,0.008-0.08-0.146-0.206-0.299C53.016,46,52.88,45.91,52.891,45.89
		c0.012-0.021,0.18,0.042,0.32,0.211C53.352,46.271,53.371,46.448,53.349,46.451z"/>
	<path style="fill:#29C7AC;" d="M54.4,44.461c-0.123-0.009-0.244-0.027-0.363-0.057c-0.123-0.002-0.245-0.016-0.365-0.039
		C53.916,44.273,54.188,44.309,54.4,44.461z"/>
	<path style="fill:#29C7AC;" d="M54.043,42.537c0,0.024-0.136,0.017-0.285,0.062c-0.148,0.044-0.259,0.116-0.274,0.099
		c-0.017-0.018,0.079-0.131,0.251-0.179S54.05,42.517,54.043,42.537z"/>
	<path style="fill:#29C7AC;" d="M39.233,54.383c0.566-0.368,1.317-0.247,1.96-0.034c0.644,0.213,1.288,0.507,1.962,0.443
		c0.734-0.069,1.363-0.559,1.849-1.112c0.598-0.684,1.044-1.488,1.307-2.359c0.266-0.887,0.401-1.928,1.164-2.453
		c0.764-0.525,1.823-0.261,2.479,0.359c0.656,0.621,0.973,1.518,1.182,2.4c0.479,2.035,0.488,4.207-0.172,6.192
		c-0.658,1.985-2.014,3.765-3.854,4.76c-1.841,0.995-4.16,1.138-6.033,0.206"/>
	<path style="fill:#263238;" d="M41.076,62.781c0.03,0.01,0.059,0.021,0.087,0.035l0.249,0.108c0.113,0.043,0.252,0.095,0.416,0.16
		c0.166,0.065,0.361,0.11,0.583,0.159c0.539,0.117,1.091,0.166,1.642,0.146c0.344-0.014,0.686-0.054,1.023-0.119
		c0.38-0.068,0.752-0.172,1.113-0.307c0.83-0.311,1.597-0.773,2.259-1.365c0.761-0.674,1.396-1.479,1.87-2.379
		c0.524-0.993,0.868-2.072,1.015-3.186c0.157-1.195,0.132-2.408-0.077-3.597c-0.096-0.603-0.246-1.196-0.449-1.771
		c-0.191-0.56-0.518-1.063-0.951-1.467c-0.428-0.378-0.982-0.578-1.553-0.56c-0.273,0.012-0.539,0.094-0.77,0.239
		c-0.224,0.147-0.41,0.345-0.545,0.576c-0.275,0.454-0.393,0.973-0.527,1.462c-0.118,0.483-0.287,0.952-0.506,1.398
		c-0.205,0.417-0.455,0.811-0.747,1.172c-0.263,0.339-0.573,0.639-0.921,0.891c-0.318,0.232-0.688,0.383-1.078,0.438
		c-0.348,0.031-0.698-0.006-1.031-0.111c-0.623-0.184-1.131-0.42-1.581-0.492c-0.34-0.076-0.694-0.066-1.03,0.025
		c-0.086,0.027-0.17,0.063-0.25,0.104c-0.055,0.031-0.083,0.044-0.083,0.044l0.079-0.05c0.079-0.046,0.162-0.084,0.248-0.113
		c0.339-0.102,0.697-0.115,1.043-0.042c0.454,0.069,0.969,0.303,1.587,0.479c0.327,0.102,0.672,0.137,1.013,0.104
		c0.381-0.056,0.74-0.204,1.05-0.433c0.343-0.249,0.647-0.547,0.905-0.883c0.286-0.36,0.532-0.749,0.734-1.161
		c0.215-0.443,0.383-0.909,0.498-1.388c0.133-0.488,0.25-1.013,0.533-1.483c0.139-0.242,0.334-0.448,0.567-0.602
		c0.239-0.153,0.516-0.241,0.8-0.254c0.291-0.014,0.58,0.031,0.854,0.133c0.277,0.1,0.535,0.25,0.76,0.444
		c0.443,0.411,0.777,0.927,0.973,1.499c0.205,0.581,0.357,1.18,0.454,1.789c0.212,1.195,0.237,2.417,0.075,3.621
		c-0.148,1.123-0.496,2.21-1.027,3.211c-0.48,0.908-1.121,1.721-1.893,2.4c-0.67,0.591-1.443,1.053-2.283,1.359
		c-0.363,0.134-0.738,0.236-1.12,0.305c-0.341,0.063-0.686,0.1-1.032,0.111c-0.555,0.017-1.109-0.037-1.65-0.16
		c-0.223-0.048-0.415-0.111-0.583-0.16c-0.168-0.048-0.304-0.113-0.414-0.16l-0.247-0.116
		C41.104,62.797,41.076,62.781,41.076,62.781z"/>
	<path style="fill:#263238;" d="M47.963,50.744c-0.082-0.068-0.147-0.153-0.191-0.25c-0.121-0.229-0.182-0.484-0.176-0.742
		c0.002-0.258,0.07-0.511,0.196-0.736c0.046-0.096,0.114-0.18,0.2-0.244c0.012,0.01-0.066,0.102-0.147,0.271
		c-0.214,0.449-0.222,0.971-0.021,1.426C47.902,50.641,47.977,50.736,47.963,50.744z"/>
	<path style="fill:#263238;" d="M48.935,50.604c-0.073-0.076-0.131-0.165-0.17-0.263c-0.106-0.231-0.17-0.481-0.186-0.735
		c-0.017-0.256,0.017-0.51,0.097-0.753c0.025-0.103,0.072-0.198,0.135-0.281C48.57,49.236,48.614,49.973,48.935,50.604
		L48.935,50.604z"/>
	<path style="fill:#263238;" d="M49.712,50.88c-0.101-0.243-0.143-0.506-0.122-0.769c-0.006-0.262,0.049-0.523,0.16-0.761
		c0.024,0.008-0.066,0.341-0.076,0.763C49.664,50.536,49.736,50.88,49.712,50.88z"/>
	<path style="fill:#29C7AC;" d="M63.07,52.88c-1.464,0.894-3.411,0.724-4.928-0.078c-1.518-0.802-2.666-2.144-3.624-3.552
		c-0.272-0.4-0.548-0.824-0.97-1.066c-0.83-0.479-1.978-0.016-2.455,0.801c-0.477,0.815-0.387,1.861-0.019,2.736
		c0,0,0.976,4.729,6.063,7.67"/>
	<path style="fill:#263238;" d="M57.139,59.395c-0.016-0.004-0.029-0.012-0.043-0.021l-0.125-0.074
		c-0.111-0.068-0.27-0.168-0.479-0.293c-0.101-0.066-0.223-0.131-0.343-0.221l-0.392-0.286c-0.14-0.106-0.3-0.208-0.45-0.341
		l-0.479-0.411c-0.792-0.709-1.496-1.511-2.098-2.388c-0.362-0.527-0.685-1.082-0.96-1.66c-0.311-0.629-0.555-1.287-0.729-1.967
		v0.008c-0.243-0.557-0.345-1.165-0.296-1.771c0.031-0.316,0.121-0.624,0.266-0.907c0.385-0.73,1.166-1.162,1.988-1.098
		c0.234,0.027,0.459,0.109,0.658,0.236c0.189,0.13,0.357,0.288,0.499,0.469c0.142,0.176,0.267,0.362,0.389,0.543
		s0.248,0.358,0.373,0.531c0.253,0.348,0.512,0.678,0.778,0.987c0.502,0.591,1.073,1.118,1.701,1.571
		C57.945,52.697,58.555,53,59.2,53.2c0.932,0.304,1.931,0.334,2.88,0.089c0.079-0.02,0.157-0.043,0.233-0.071
		c0.072-0.026,0.142-0.046,0.202-0.072c0.121-0.054,0.227-0.096,0.307-0.138l0.184-0.098c0.021-0.012,0.043-0.021,0.064-0.03
		c-0.019,0.015-0.039,0.027-0.059,0.038l-0.182,0.104c-0.08,0.045-0.184,0.088-0.305,0.146c-0.063,0.027-0.131,0.05-0.202,0.076
		c-0.077,0.031-0.155,0.057-0.235,0.078c-0.956,0.26-1.967,0.236-2.91-0.066c-0.652-0.198-1.268-0.502-1.822-0.897
		c-0.635-0.454-1.212-0.983-1.719-1.577c-0.271-0.311-0.531-0.641-0.785-0.989c-0.127-0.175-0.252-0.354-0.375-0.534
		c-0.123-0.182-0.246-0.365-0.385-0.536c-0.137-0.174-0.299-0.326-0.48-0.451c-0.188-0.121-0.4-0.197-0.623-0.223
		c-0.459-0.042-0.919,0.085-1.293,0.356c-0.507,0.371-0.825,0.946-0.869,1.573c-0.048,0.592,0.051,1.187,0.287,1.731v0.008
		c0.173,0.674,0.414,1.328,0.721,1.953c0.275,0.576,0.598,1.129,0.959,1.654c0.597,0.875,1.295,1.676,2.08,2.385l0.48,0.414
		c0.148,0.135,0.307,0.235,0.443,0.344l0.389,0.291c0.119,0.092,0.238,0.16,0.34,0.225l0.469,0.305l0.119,0.079
		C57.123,59.375,57.131,59.385,57.139,59.395z"/>
	<path style="fill:#263238;" d="M52.451,50.862c-0.121-0.387-0.291-0.756-0.508-1.099c-0.373-0.561-0.851-0.855-0.832-0.877
		c0.112,0.046,0.215,0.11,0.307,0.189c0.462,0.365,0.801,0.865,0.969,1.43C52.43,50.62,52.451,50.74,52.451,50.862z"/>
	<path style="fill:#263238;" d="M53.439,50.221c-0.063-0.406-0.179-0.802-0.346-1.178c-0.191-0.363-0.43-0.699-0.708-1.002
		c0.104,0.064,0.2,0.145,0.28,0.237c0.204,0.216,0.374,0.462,0.504,0.729c0.129,0.268,0.216,0.553,0.259,0.847
		C53.453,49.975,53.457,50.1,53.439,50.221z"/>
	<g style="opacity:0.3;">
		<path style="fill:#FFFFFF;" d="M50.133,59.611c0.398-0.609-1.243-0.754-1.967-0.669c-2.193,0.252-3.84,2.126-3.808,4.335
			C44.358,63.277,47.52,63.614,50.133,59.611z"/>
	</g>
	<g style="opacity:0.3;">
		<path d="M52.828,56.89c0.832,1.272,2.066,2.229,3.505,2.72c0.151,0.066,0.316,0.089,0.479,0.067
			c0.166-0.024,0.291-0.163,0.298-0.331c-1.71-0.931-3.177-2.252-4.278-3.857c-0.084,0.492-0.014,0.998,0.201,1.449"/>
	</g>
	<circle style="fill:#F5F5F5;" cx="48.076" cy="43.542" r="3.608"/>
	<path style="fill:#263238;" d="M51.68,43.693c0,1.742-0.915,3.199-1.934,3.199c-1.02,0-1.847-1.412-1.847-3.153
		s0.827-3.153,1.847-3.153C50.765,40.586,51.68,41.952,51.68,43.693z"/>
	<path style="fill:#FFFFFF;" d="M48.848,45.189c-0.029-0.036-0.055-0.076-0.073-0.119c-0.058-0.113-0.107-0.23-0.149-0.35
		c-0.277-0.804-0.255-1.681,0.066-2.468c0.047-0.118,0.104-0.231,0.17-0.341c0.02-0.042,0.047-0.081,0.078-0.115
		c0.013,0-0.084,0.18-0.192,0.48c-0.14,0.388-0.218,0.797-0.23,1.209c-0.011,0.412,0.044,0.824,0.16,1.219
		C48.774,45.005,48.862,45.183,48.848,45.189z"/>
	<circle style="fill:#FFFFFF;" cx="50.207" cy="41.717" r="0.617"/>
	<path style="fill:#263238;" d="M50.412,39.088c-0.068,0.095-0.242,0.093-0.462,0.058s-0.494-0.099-0.792-0.147
		c-0.297-0.048-0.566-0.077-0.782-0.107s-0.382-0.074-0.426-0.182c-0.043-0.109,0.062-0.264,0.304-0.394
		c0.144-0.073,0.297-0.123,0.457-0.146c0.193-0.03,0.391-0.03,0.585,0c0.35,0.053,0.675,0.21,0.935,0.451
		C50.422,38.819,50.479,38.997,50.412,39.088z"/>
	<path style="fill:#29C7AC;" d="M48.777,48.047c-0.635-1.305-0.092-2.877,1.213-3.513c1.065-0.519,2.346-0.259,3.127,0.632"/>
	<path style="fill:#263238;" d="M53.12,45.166c0,0-0.077-0.072-0.22-0.195c-0.203-0.172-0.432-0.313-0.678-0.416
		c-0.363-0.153-0.756-0.229-1.15-0.221c-0.993-0.009-1.893,0.586-2.272,1.503c-0.161,0.36-0.243,0.751-0.243,1.146
		c0,0.267,0.041,0.531,0.12,0.785c0.058,0.18,0.103,0.275,0.095,0.279c-0.016-0.021-0.027-0.043-0.037-0.066
		c-0.033-0.064-0.063-0.133-0.088-0.201c-0.094-0.256-0.145-0.527-0.147-0.801c-0.011-0.404,0.068-0.807,0.23-1.177
		c0.384-0.948,1.311-1.563,2.333-1.549c0.404-0.005,0.805,0.079,1.174,0.245c0.249,0.109,0.477,0.26,0.676,0.444
		c0.055,0.05,0.105,0.103,0.152,0.16C53.086,45.121,53.104,45.143,53.12,45.166z"/>
	<path style="fill:#263238;" d="M41.613,34.384c-0.025,0.014-0.054,0.023-0.082,0.027l-0.238,0.064
		c-0.104,0.026-0.23,0.063-0.376,0.107l-0.232,0.069l-0.259,0.088c-0.94,0.329-1.843,0.758-2.691,1.28
		c-0.85,0.524-1.662,1.106-2.432,1.741c-0.296,0.244-0.534,0.442-0.696,0.583l-0.19,0.16c-0.043,0.037-0.067,0.054-0.07,0.051
		c0.017-0.023,0.037-0.044,0.059-0.063l0.179-0.171c0.16-0.147,0.389-0.352,0.68-0.603c0.763-0.648,1.574-1.236,2.427-1.76
		c0.853-0.53,1.766-0.956,2.72-1.271l0.261-0.085l0.236-0.063c0.148-0.042,0.274-0.073,0.38-0.094l0.243-0.048
		C41.558,34.389,41.585,34.385,41.613,34.384z"/>
</g>
<g id="freepik--404-error--inject-435">
	<path style="fill:#263238;" d="M18.41,14.845c-0.029-0.06-0.051-0.123-0.066-0.187c-0.019-0.061-0.04-0.138-0.059-0.226
		c-0.019-0.088-0.044-0.192-0.061-0.304c-0.044-0.265-0.068-0.532-0.074-0.8c-0.004-0.33,0.019-0.658,0.067-0.984
		c0.053-0.325,0.132-0.646,0.235-0.96c0.088-0.254,0.195-0.502,0.32-0.741c0.049-0.104,0.105-0.192,0.15-0.272
		c0.044-0.08,0.088-0.144,0.125-0.197c0.034-0.058,0.075-0.111,0.12-0.16c0.013,0.008-0.146,0.243-0.342,0.652
		c-0.114,0.24-0.212,0.487-0.294,0.739c-0.098,0.311-0.174,0.628-0.227,0.949c-0.047,0.322-0.071,0.646-0.072,0.971
		c0.001,0.268,0.02,0.535,0.056,0.8C18.346,14.57,18.426,14.842,18.41,14.845z"/>
	
		<rect x="23.023" y="8.113" transform="matrix(-0.9831 0.1829 -0.1829 -0.9831 83.9482 28.3321)" style="fill:#FFFFFF;" width="35.29" height="19.85"/>
	<path style="fill:#263238;" d="M59.83,24.566c0,0-0.025-0.118-0.068-0.349s-0.109-0.573-0.193-1.02
		c-0.168-0.893-0.416-2.209-0.733-3.899c-0.64-3.378-1.546-8.251-2.669-14.24l0.039,0.026l-34.691,6.462l0,0l0.034-0.05
		c1.28,6.902,2.51,13.504,3.628,19.52l-0.046-0.032l24.96-4.625l7.17-1.323l1.91-0.35l0.492-0.09l0.17-0.029l-0.16,0.034
		l-0.488,0.093l-1.904,0.357L50.121,26.4l-24.979,4.661l-0.039,0.008V31.03c-1.12-6.013-2.349-12.613-3.635-19.52v-0.042h0.04l0,0
		l34.683-6.45h0.033V5.05l2.637,14.269c0.311,1.688,0.551,3.001,0.717,3.895l0.186,1.014C59.811,24.451,59.83,24.566,59.83,24.566z"
		/>
	<path style="fill:#263238;" d="M36.427,18.985l-1.067,0.199l0.256,1.371l-1.975,0.368l-0.256-1.372L29.6,20.256l-0.247-1.32
		l2.381-5.067l2.098-0.39l-2.138,4.726l1.453-0.27l-0.227-1.218l1.92-0.355l0.228,1.216l1.062-0.197L36.427,18.985z"/>
	<path style="fill:#263238;" d="M36.426,16.701c-0.44-2.363,0.64-3.971,2.469-4.312c1.828-0.341,3.402,0.774,3.84,3.138
		s-0.641,3.971-2.458,4.309C38.459,20.173,36.866,19.064,36.426,16.701z M40.702,15.901c-0.28-1.501-0.862-1.981-1.502-1.854
		c-0.64,0.126-1.021,0.771-0.741,2.275c0.28,1.504,0.854,1.979,1.509,1.857c0.655-0.122,1.015-0.771,0.734-2.275V15.901z"/>
	<path style="fill:#263238;" d="M50.597,16.349l-1.063,0.199l0.254,1.371l-1.973,0.368l-0.256-1.372l-3.785,0.704l-0.246-1.32
		l2.381-5.067L48,10.842l-2.131,4.726l1.453-0.27l-0.229-1.218l1.921-0.355l0.226,1.216l1.064-0.197L50.597,16.349z"/>
	<path style="fill:#263238;" d="M37.133,24.76l0.065,0.349l-2.038,0.379l-0.523-2.81l1.982-0.368l0.064,0.349l-1.581,0.294
		l0.16,0.862l1.41-0.262l0.064,0.342l-1.41,0.264l0.17,0.905L37.133,24.76z"/>
	<path style="fill:#263238;" d="M39.725,24.64l-0.766-0.75c-0.055,0.014-0.114,0.03-0.174,0.042l-0.694,0.129l0.16,0.854l-0.4,0.075
		l-0.523-2.81l1.096-0.205c0.729-0.136,1.24,0.152,1.354,0.762c0.093,0.397-0.092,0.809-0.453,1.001l0.842,0.819L39.725,24.64z
		 M39.373,22.813c-0.075-0.402-0.386-0.581-0.899-0.48l-0.683,0.126l0.235,1.264l0.684-0.126c0.513-0.103,0.739-0.384,0.664-0.786
		V22.813z"/>
	<path style="fill:#263238;" d="M42.642,24.096l-0.767-0.75c-0.055,0.014-0.113,0.03-0.174,0.042l-0.695,0.128l0.16,0.856
		l-0.399,0.074l-0.523-2.808l1.097-0.205c0.729-0.136,1.239,0.16,1.354,0.761c0.096,0.399-0.091,0.813-0.453,1.007l0.842,0.819
		L42.642,24.096z M42.289,22.269c-0.074-0.401-0.385-0.581-0.898-0.48l-0.684,0.126l0.235,1.264l0.683-0.126
		C42.139,22.952,42.365,22.669,42.289,22.269z"/>
	<path style="fill:#263238;" d="M43.19,22.541c-0.151-0.823,0.366-1.556,1.23-1.715c0.864-0.16,1.601,0.333,1.76,1.16
		c0.16,0.828-0.366,1.554-1.221,1.714S43.344,23.36,43.19,22.541z M45.775,22.061c-0.104-0.604-0.678-1.009-1.283-0.905
		c-0.604,0.104-1.009,0.679-0.904,1.283c0.104,0.604,0.679,1.01,1.283,0.905c0.006-0.001,0.012-0.002,0.018-0.003
		c0.586-0.09,0.988-0.638,0.898-1.224c-0.004-0.019-0.008-0.039-0.012-0.058V22.061z"/>
	<path style="fill:#263238;" d="M48.93,22.926l-0.77-0.75c-0.057,0.015-0.115,0.029-0.176,0.04l-0.695,0.13l0.16,0.854l-0.401,0.075
		l-0.522-2.81l1.096-0.204c0.73-0.136,1.24,0.15,1.354,0.762c0.094,0.398-0.092,0.81-0.453,1.001l0.842,0.819L48.93,22.926z
		 M48.576,21.098c-0.074-0.4-0.386-0.579-0.899-0.48l-0.682,0.126l0.235,1.264l0.682-0.126
		C48.426,21.782,48.651,21.499,48.576,21.098z"/>
	<path style="fill:#E0E0E0;" d="M55.467,7.165c0.016,0.399-0.295,0.735-0.693,0.751c-0.399,0.016-0.736-0.295-0.752-0.694
		c-0.016-0.399,0.295-0.735,0.695-0.751c0,0,0.002,0,0.004,0C55.117,6.457,55.451,6.767,55.467,7.165z"/>
	<path style="fill:#263238;" d="M55.467,7.165c-0.008,0-0.01-0.064-0.045-0.171c-0.051-0.15-0.148-0.279-0.279-0.368
		c-0.316-0.214-0.746-0.131-0.96,0.185c-0.082,0.121-0.124,0.264-0.118,0.41c0.019,0.381,0.343,0.675,0.725,0.656
		c0.144-0.007,0.281-0.059,0.395-0.149c0.124-0.099,0.212-0.235,0.25-0.389C55.461,7.229,55.457,7.165,55.467,7.165
		c0.007,0-0.001,0.016,0.007,0.046c0.003,0.045,0.001,0.09-0.008,0.134c-0.028,0.167-0.115,0.318-0.245,0.427
		c-0.195,0.167-0.463,0.222-0.709,0.146c-0.4-0.124-0.623-0.549-0.499-0.949c0.067-0.219,0.23-0.395,0.443-0.479
		c0.239-0.096,0.51-0.063,0.718,0.088c0.139,0.099,0.236,0.244,0.277,0.408c0.012,0.043,0.018,0.088,0.018,0.133
		C55.471,7.149,55.471,7.165,55.467,7.165z"/>
	<path style="fill:#263238;" d="M55.064,6.663c0.035,0.193,0,0.392-0.1,0.562c-0.074,0.181-0.212,0.33-0.387,0.417
		c0.113-0.145,0.218-0.297,0.312-0.456C54.959,7.015,55.018,6.84,55.064,6.663z"/>
	<path style="fill:#263238;" d="M55.2,7.429c-0.021,0.013-0.117-0.178-0.335-0.29c-0.137-0.056-0.282-0.091-0.43-0.105
		c0-0.011,0.048-0.034,0.136-0.04c0.115-0.006,0.229,0.019,0.333,0.072c0.102,0.053,0.188,0.133,0.25,0.23
		C55.2,7.371,55.216,7.426,55.2,7.429z"/>
	
		<rect x="21.296" y="17.317" transform="matrix(-0.7819 0.6234 -0.6234 -0.7819 51.1457 17.794)" style="fill:#E0E0E0;" width="2.328" height="1.052"/>
	<path style="fill:#263238;" d="M23.698,17.531c0,0-0.074-0.08-0.192-0.221l-0.48-0.584h0.043c-0.467,0.381-1.105,0.896-1.813,1.459
		c0,0.053,0-0.07,0-0.058l0,0l0,0l0,0l0.011,0.015l0.022,0.027l0.043,0.053l0.084,0.107l0.16,0.209l0.32,0.4h-0.056
		c0.524-0.415,0.98-0.767,1.309-1.02l0.387-0.294c0.047-0.039,0.097-0.074,0.149-0.105c-0.038,0.04-0.079,0.076-0.122,0.109
		l-0.368,0.307c-0.32,0.262-0.771,0.64-1.306,1.065l-0.03,0.024l-0.026-0.03l-0.32-0.398c-0.056-0.069-0.112-0.138-0.168-0.209
		l-0.085-0.105l-0.043-0.055L21.197,18.2l-0.01-0.013l0,0l0,0l0,0c0,0.013,0.013-0.11,0-0.058c0.708-0.564,1.352-1.072,1.828-1.44
		l0.024-0.018l0.019,0.022c0.203,0.263,0.365,0.48,0.48,0.621C23.596,17.383,23.649,17.456,23.698,17.531z"/>
	<path style="fill:#E0E0E0;" d="M20.813,19.2c0.332,0.421,0.943,0.493,1.364,0.16c0,0,0,0,0.001,0l-1.218-1.52
		C20.546,18.176,20.48,18.783,20.813,19.2z"/>
	<path style="fill:#263238;" d="M20.813,19.2c-0.03-0.024-0.055-0.053-0.075-0.085c-0.061-0.089-0.105-0.188-0.131-0.291
		c-0.043-0.161-0.043-0.33,0-0.49c0.053-0.208,0.171-0.394,0.337-0.53l0.031-0.024l0.024,0.03l0.608,0.757
		c0.214,0.269,0.417,0.526,0.603,0.762l0.024,0.03l-0.03,0.024c-0.169,0.132-0.376,0.207-0.59,0.213
		c-0.167,0.004-0.332-0.034-0.48-0.112c-0.095-0.049-0.181-0.115-0.253-0.194C20.853,19.265,20.83,19.234,20.813,19.2
		c0.101,0.097,0.216,0.179,0.341,0.243c0.329,0.152,0.716,0.105,1-0.12v0.054l-0.608-0.757l-0.603-0.761h0.053
		c-0.284,0.227-0.415,0.595-0.339,0.95C20.69,18.946,20.743,19.078,20.813,19.2z"/>
	<path style="fill:#E0E0E0;" d="M21.037,18.696c-0.152,0.177-0.191,0.425-0.101,0.64"/>
	<path style="fill:#263238;" d="M20.936,19.342c-0.085-0.092-0.117-0.223-0.083-0.344c0.03-0.208,0.171-0.32,0.184-0.303
		c0.013,0.018-0.077,0.136-0.102,0.32C20.909,19.2,20.96,19.331,20.936,19.342z"/>
	<path style="fill:#263238;" d="M22.181,18.8c-0.129-0.132-0.248-0.273-0.355-0.424c-0.128-0.132-0.246-0.274-0.352-0.424
		c0.165,0.09,0.308,0.217,0.416,0.371C22.021,18.459,22.12,18.622,22.181,18.8z"/>
	<path style="fill:#263238;" d="M22.4,18.63c-0.128-0.132-0.247-0.274-0.354-0.424c-0.128-0.133-0.246-0.275-0.352-0.426
		C22.009,17.987,22.255,18.283,22.4,18.63z"/>
	<path style="fill:#263238;" d="M22.608,18.459c-0.128-0.132-0.247-0.273-0.354-0.424c-0.128-0.132-0.247-0.274-0.354-0.424
		c0.166,0.09,0.308,0.217,0.417,0.371C22.448,18.119,22.547,18.281,22.608,18.459z"/>
	<path style="fill:#263238;" d="M22.821,18.29c-0.128-0.132-0.247-0.274-0.354-0.424c-0.127-0.133-0.245-0.275-0.352-0.426
		c0.164,0.092,0.306,0.218,0.416,0.371C22.663,17.947,22.761,18.11,22.821,18.29z"/>
	<path style="fill:#263238;" d="M23.04,18.118c-0.129-0.132-0.247-0.273-0.354-0.424c-0.128-0.132-0.246-0.273-0.352-0.424
		c0.165,0.091,0.307,0.218,0.416,0.371C22.88,17.778,22.979,17.94,23.04,18.118z"/>
	<path style="fill:#263238;" d="M23.248,17.949c-0.128-0.132-0.247-0.274-0.354-0.424c-0.128-0.133-0.246-0.275-0.352-0.426
		c0.164,0.092,0.306,0.218,0.416,0.371C23.09,17.606,23.188,17.77,23.248,17.949z"/>
	<path style="fill:#263238;" d="M23.462,17.777c-0.129-0.132-0.247-0.273-0.354-0.424c-0.128-0.132-0.246-0.273-0.352-0.424
		c0.165,0.091,0.307,0.218,0.416,0.371C23.303,17.437,23.402,17.6,23.462,17.777z"/>
	<path style="fill:#263238;" d="M24.72,13.12c-0.008,0-0.01-0.066-0.045-0.173c-0.051-0.152-0.151-0.284-0.285-0.373
		c-0.319-0.217-0.754-0.135-0.972,0.184c-0.084,0.123-0.126,0.27-0.121,0.418c0.017,0.386,0.343,0.685,0.729,0.668
		c0.149-0.006,0.292-0.061,0.408-0.154c0.125-0.1,0.214-0.238,0.253-0.394C24.715,13.186,24.712,13.12,24.72,13.12
		c0.008,0,0,0.016,0.008,0.046c0.003,0.045,0,0.091-0.008,0.136c-0.026,0.17-0.111,0.325-0.24,0.438
		c-0.198,0.169-0.469,0.225-0.717,0.146c-0.403-0.13-0.625-0.563-0.494-0.967c0.069-0.214,0.229-0.386,0.437-0.473
		c0.242-0.096,0.517-0.063,0.728,0.09c0.139,0.101,0.238,0.247,0.28,0.413c0.012,0.044,0.019,0.089,0.02,0.134
		C24.728,13.108,24.723,13.12,24.72,13.12z"/>
	<path style="fill:#263238;" d="M19.968,14.893c-0.027-0.06-0.048-0.123-0.064-0.187c-0.024-0.074-0.044-0.15-0.059-0.227
		c-0.019-0.088-0.046-0.189-0.061-0.303c-0.044-0.264-0.07-0.532-0.075-0.8c-0.013-0.661,0.09-1.318,0.304-1.944
		c0.088-0.255,0.195-0.503,0.32-0.743c0.048-0.104,0.104-0.192,0.148-0.271c0.039-0.067,0.08-0.133,0.125-0.196
		c0.035-0.058,0.075-0.111,0.12-0.16c0.014,0.009-0.146,0.243-0.341,0.654c-0.116,0.239-0.214,0.486-0.296,0.739
		c-0.098,0.31-0.173,0.626-0.226,0.947c-0.048,0.322-0.073,0.647-0.073,0.973c0.001,0.268,0.02,0.535,0.056,0.8
		C19.904,14.618,19.984,14.888,19.968,14.893z"/>
	<path style="fill:#263238;" d="M62.158,21.92c0.029,0.06,0.052,0.123,0.066,0.188c0.023,0.074,0.043,0.149,0.059,0.226
		c0.02,0.089,0.047,0.19,0.061,0.304c0.045,0.265,0.07,0.532,0.075,0.8c0.013,0.661-0.091,1.318-0.304,1.944
		c-0.088,0.255-0.195,0.502-0.32,0.741c-0.049,0.104-0.104,0.192-0.15,0.272c-0.037,0.068-0.079,0.134-0.125,0.197
		c-0.033,0.058-0.072,0.111-0.118,0.16c-0.015-0.008,0.146-0.243,0.341-0.653c0.113-0.24,0.213-0.487,0.297-0.739
		c0.098-0.311,0.173-0.627,0.225-0.949c0.049-0.322,0.073-0.646,0.074-0.971c-0.002-0.268-0.021-0.535-0.057-0.8
		C62.225,22.202,62.145,21.93,62.158,21.92z"/>
	<path style="fill:#263238;" d="M63.2,22.202c0.028,0.06,0.051,0.123,0.065,0.187c0.023,0.074,0.043,0.149,0.059,0.226
		c0.02,0.09,0.045,0.19,0.062,0.304c0.044,0.265,0.069,0.532,0.075,0.8c0.003,0.33-0.02,0.658-0.067,0.984
		c-0.054,0.326-0.132,0.647-0.237,0.96c-0.088,0.255-0.194,0.503-0.319,0.742c-0.05,0.103-0.104,0.19-0.15,0.271
		c-0.038,0.07-0.081,0.139-0.126,0.205c-0.033,0.058-0.074,0.111-0.119,0.16c-0.014-0.008,0.146-0.243,0.341-0.653
		c0.114-0.24,0.213-0.487,0.296-0.739c0.098-0.311,0.174-0.627,0.227-0.949c0.048-0.321,0.072-0.646,0.072-0.971
		c-0.002-0.268-0.02-0.535-0.055-0.8C63.264,22.477,63.184,22.205,63.2,22.202z"/>
</g>
<g id="freepik--speech-bubble--inject-435">
	<path style="fill:#FAFAFA;" d="M28.405,34.753c2.236-2.987,1.628-7.222-1.359-9.458c-2.987-2.237-7.222-1.628-9.458,1.359
		s-1.628,7.222,1.359,9.458c2.277,1.705,5.378,1.801,7.756,0.24l2.323,1.029L28.405,34.753z"/>
	<path style="fill:#29C7AC;" d="M20.947,30.323c0.02-0.255,0.118-0.497,0.28-0.694c0.151-0.2,0.361-0.347,0.6-0.421
		c0.42-0.122,0.87,0.057,1.093,0.434c0.189-0.376,0.6-0.587,1.016-0.521c0.244,0.047,0.467,0.168,0.64,0.347
		c0.184,0.178,0.309,0.407,0.36,0.658c0.058,0.321,0.011,0.652-0.134,0.944c-0.17,0.297-0.41,0.55-0.698,0.736
		c-0.466,0.32-1.079,0.72-1.079,0.72s-0.562-0.37-1.061-0.632c-0.308-0.15-0.576-0.373-0.781-0.648
		C21.008,30.971,20.925,30.648,20.947,30.323z"/>
	<path style="fill:#263238;" d="M22.989,23.973c-0.04-0.003-0.079-0.003-0.118,0l-0.344,0.011c-0.077,0-0.16,0-0.254,0.011
		l-0.304,0.042l-0.355,0.051l-0.397,0.099c-0.682,0.172-1.331,0.455-1.92,0.838c-1.772,1.127-2.922,3.01-3.117,5.101
		c-0.026,0.31-0.033,0.621-0.019,0.931c0.011,0.16,0,0.32,0.03,0.48s0.048,0.32,0.074,0.48c0.119,0.659,0.334,1.297,0.64,1.893
		c0.327,0.625,0.743,1.197,1.235,1.701c0.524,0.516,1.125,0.948,1.781,1.28c0.679,0.349,1.414,0.574,2.171,0.666
		c0.191,0.03,0.385,0.047,0.579,0.05c0.195,0.015,0.39,0.019,0.585,0.011c0.395-0.017,0.787-0.066,1.173-0.149
		c0.833-0.18,1.625-0.516,2.334-0.989l-0.07,0.008l2.377,0.96l0.141,0.058l-0.04-0.147l-0.691-2.55l-0.011,0.063
		c0.645-0.855,1.079-1.85,1.267-2.904c0.092-0.49,0.123-0.99,0.093-1.488c-0.004-0.241-0.028-0.481-0.069-0.719
		c-0.018-0.117-0.037-0.232-0.054-0.347c-0.018-0.115-0.056-0.226-0.083-0.337c-0.397-1.563-1.337-2.933-2.651-3.866
		c-0.486-0.349-1.017-0.629-1.579-0.833l-0.355-0.126l-0.337-0.086l-0.309-0.077c-0.1-0.019-0.195-0.029-0.285-0.043
		c-0.179-0.022-0.337-0.053-0.48-0.061l-0.35-0.011h-0.213c-0.024-0.003-0.048-0.003-0.072,0c0.024,0.005,0.048,0.008,0.072,0.01
		l0.213,0.016l0.345,0.024c0.138,0.011,0.294,0.044,0.472,0.072c2.635,0.455,4.755,2.421,5.406,5.015
		c0.026,0.11,0.06,0.219,0.08,0.331c0.021,0.112,0.034,0.227,0.051,0.341c0.039,0.232,0.06,0.467,0.063,0.702
		c0.027,0.489-0.005,0.979-0.096,1.459c-0.188,1.032-0.617,2.004-1.251,2.84l-0.021,0.029l0.01,0.035
		c0.224,0.821,0.454,1.67,0.693,2.542l0.101-0.089l-2.376-0.96l-0.037-0.014l-0.035,0.021c-0.694,0.459-1.468,0.785-2.282,0.96
		c-0.377,0.081-0.76,0.129-1.146,0.146c-0.191,0.006-0.382,0.003-0.573-0.011c-0.189-0.003-0.378-0.019-0.565-0.048
		c-0.74-0.089-1.459-0.309-2.123-0.648C19.348,36.42,18.757,36,18.24,35.498c-0.483-0.493-0.892-1.053-1.215-1.663
		c-0.302-0.582-0.518-1.206-0.64-1.851c-0.024-0.16-0.048-0.32-0.072-0.469s-0.021-0.32-0.032-0.467
		c-0.118-2.387,1.045-4.655,3.051-5.954c0.58-0.384,1.219-0.672,1.891-0.853l0.392-0.104l0.352-0.058l0.301-0.05
		c0.093-0.011,0.178-0.013,0.253-0.019l0.344-0.026C22.907,23.984,22.948,23.979,22.989,23.973z"/>
</g>
</svg>
